<svg id="afef21a8-19fd-4a38-bdbd-5ca2780328a6" data-name="Layer 1" xmlns="http://www.w3.org/2000/svg" viewBox="0 0 1154 2305"><title>formBkg-dark</title><polygon points="1153.5 476.5 1153.5 0.5 1146.5 409.5 1153.5 476.5" fill="none" stroke="#1a1a1a" stroke-linejoin="round"/><polygon points="0.5 1084.5 19.5 801.5 0.5 533.5 0.5 1084.5" fill="none" stroke="#151515" stroke-linejoin="round"/><polygon points="0.5 1553.5 1.5 1424.5 0.5 1265.5 0.5 1553.5" fill="none" stroke="#171717" stroke-linejoin="round"/><polygon points="1153.5 1597.5 1153.5 1152.5 1147.5 1309.5 1153.5 1597.5" fill="none" stroke="#171717" stroke-linejoin="round"/><polygon points="0.5 2175.5 3.5 1900.5 0.5 1553.5 0.5 2175.5" fill="none" stroke="#1d1d1d" stroke-linejoin="round"/><polygon points="687.5 2304.5 849.5 2111.5 687.5 2164.5 687.5 2304.5" fill="none" stroke="#000" stroke-linejoin="round"/><polygon points="687.5 2304.5 893.5 2140.5 849.5 2111.5 687.5 2304.5" fill="none" stroke="#060606" stroke-linejoin="round"/><polygon points="687.5 2304.5 985.5 2247.5 893.5 2140.5 687.5 2304.5" fill="none" stroke="#0f0f0f" stroke-linejoin="round"/><polygon points="313.5 2304.5 376.5 2275.5 336.5 2286.5 313.5 2304.5" fill="none" stroke="#141414" stroke-linejoin="round"/><polygon points="313.5 2304.5 281.5 2232.5 246.5 2304.5 313.5 2304.5" fill="none" stroke="#181818" stroke-linejoin="round"/><polygon points="313.5 2304.5 336.5 2286.5 281.5 2232.5 313.5 2304.5" fill="none" stroke="#161616" stroke-linejoin="round"/><polygon points="38.5 2304.5 0.5 2279.5 0.5 2293.5 38.5 2304.5" fill="none" stroke="#242424" stroke-linejoin="round"/><polygon points="38.5 2304.5 124.5 2254.5 0.5 2279.5 38.5 2304.5" fill="none" stroke="#222" stroke-linejoin="round"/><polygon points="38.5 2304.5 155.5 2276.5 124.5 2254.5 38.5 2304.5" fill="none" stroke="#202020" stroke-linejoin="round"/><polygon points="1143.5 2304.5 1111.5 2205.5 1122.5 2301.5 1143.5 2304.5" fill="none" stroke="#212121" stroke-linejoin="round"/><polygon points="237.5 2304.5 246.5 2304.5 281.5 2232.5 237.5 2304.5" fill="none" stroke="#191919" stroke-linejoin="round"/><polygon points="237.5 2304.5 281.5 2232.5 155.5 2276.5 237.5 2304.5" fill="none" stroke="#1a1a1a" stroke-linejoin="round"/><polygon points="237.5 2304.5 155.5 2276.5 38.5 2304.5 237.5 2304.5" fill="none" stroke="#1f1f1f" stroke-linejoin="round"/><polygon points="1037.5 2304.5 1122.5 2301.5 1111.5 2205.5 1037.5 2304.5" fill="none" stroke="#202020" stroke-linejoin="round"/><polygon points="1037.5 2304.5 1111.5 2205.5 985.5 2247.5 1037.5 2304.5" fill="none" stroke="#1d1d1d" stroke-linejoin="round"/><polygon points="1037.5 2304.5 985.5 2247.5 687.5 2304.5 1037.5 2304.5" fill="none" stroke="#161616" stroke-linejoin="round"/><polygon points="1037.5 2304.5 1143.5 2304.5 1122.5 2301.5 1037.5 2304.5" fill="none" stroke="#212121" stroke-linejoin="round"/><polygon points="451.5 2304.5 468.5 2239.5 376.5 2275.5 451.5 2304.5" fill="none" stroke="#0c0c0c" stroke-linejoin="round"/><polygon points="451.5 2304.5 514.5 2260.5 468.5 2239.5 451.5 2304.5" fill="none" stroke="#080808" stroke-linejoin="round"/><polygon points="451.5 2304.5 555.5 2296.5 514.5 2260.5 451.5 2304.5" fill="none" stroke="#080808" stroke-linejoin="round"/><polygon points="451.5 2304.5 376.5 2275.5 313.5 2304.5 451.5 2304.5" fill="none" stroke="#121212" stroke-linejoin="round"/><polygon points="0.5 2304.5 38.5 2304.5 0.5 2293.5 0.5 2304.5" fill="none" stroke="#242424" stroke-linejoin="round"/><polygon points="576.5 2304.5 656.5 2297.5 610.5 2246.5 576.5 2304.5" fill="none" stroke="#040404" stroke-linejoin="round"/><polygon points="576.5 2304.5 610.5 2246.5 555.5 2296.5 576.5 2304.5" fill="none" stroke="#040404" stroke-linejoin="round"/><polygon points="576.5 2304.5 687.5 2304.5 656.5 2297.5 576.5 2304.5" fill="none" stroke="#070707" stroke-linejoin="round"/><polygon points="576.5 2304.5 555.5 2296.5 451.5 2304.5 576.5 2304.5" fill="none" stroke="#090909" stroke-linejoin="round"/><polygon points="1153.5 2304.5 1153.5 1965.5 1141.5 2083.5 1153.5 2304.5" fill="none" stroke="#1e1e1e" stroke-linejoin="round"/><polygon points="1153.5 2304.5 1111.5 2205.5 1143.5 2304.5 1153.5 2304.5" fill="none" stroke="#212121" stroke-linejoin="round"/><polygon points="1153.5 2304.5 1141.5 2083.5 1111.5 2205.5 1153.5 2304.5" fill="none" stroke="#202020" stroke-linejoin="round"/><polygon points="687.5 2304.5 687.5 2164.5 656.5 2297.5 687.5 2304.5" fill="none" stroke="#010101" stroke-linejoin="round"/><polygon points="1153.5 1965.5 1153.5 1597.5 1130.5 1886.5 1153.5 1965.5" fill="none" stroke="#1a1a1a" stroke-linejoin="round"/><polygon points="0.5 2279.5 124.5 2254.5 101.5 2169.5 0.5 2279.5" fill="none" stroke="#202020" stroke-linejoin="round"/><polygon points="0.5 2279.5 101.5 2169.5 0.5 2175.5 0.5 2279.5" fill="none" stroke="#212121" stroke-linejoin="round"/><polygon points="656.5 2297.5 687.5 2164.5 610.5 2246.5 656.5 2297.5" fill="none" stroke="#000" stroke-linejoin="round"/><polygon points="514.5 2260.5 610.5 2246.5 567.5 2198.5 514.5 2260.5" fill="none" stroke="#000" stroke-linejoin="round"/><polygon points="555.5 2296.5 610.5 2246.5 514.5 2260.5 555.5 2296.5" fill="none" stroke="#020202" stroke-linejoin="round"/><polygon points="610.5 2246.5 597.5 2214.5 567.5 2198.5 610.5 2246.5" fill="none" stroke="#000" stroke-linejoin="round"/><polygon points="155.5 2276.5 281.5 2232.5 165.5 2148.5 155.5 2276.5" fill="none" stroke="#1a1a1a" stroke-linejoin="round"/><polygon points="376.5 2275.5 468.5 2239.5 362.5 2196.5 376.5 2275.5" fill="none" stroke="#0c0c0c" stroke-linejoin="round"/><polygon points="336.5 2286.5 376.5 2275.5 362.5 2196.5 336.5 2286.5" fill="none" stroke="#111" stroke-linejoin="round"/><polygon points="336.5 2286.5 362.5 2196.5 281.5 2232.5 336.5 2286.5" fill="none" stroke="#121212" stroke-linejoin="round"/><polygon points="155.5 2276.5 165.5 2148.5 124.5 2254.5 155.5 2276.5" fill="none" stroke="#1d1d1d" stroke-linejoin="round"/><polygon points="687.5 2164.5 849.5 2111.5 695.5 2133.5 687.5 2164.5" fill="none" stroke="#000" stroke-linejoin="round"/><polygon points="468.5 2239.5 385.5 2167.5 362.5 2196.5 468.5 2239.5" fill="none" stroke="#080808" stroke-linejoin="round"/><polygon points="610.5 2246.5 687.5 2164.5 597.5 2214.5 610.5 2246.5" fill="none" stroke="#000" stroke-linejoin="round"/><polygon points="985.5 2247.5 1111.5 2205.5 1065.5 2137.5 985.5 2247.5" fill="none" stroke="#1c1c1c" stroke-linejoin="round"/><polygon points="514.5 2260.5 567.5 2198.5 468.5 2239.5 514.5 2260.5" fill="none" stroke="#000" stroke-linejoin="round"/><polygon points="124.5 2254.5 165.5 2148.5 101.5 2169.5 124.5 2254.5" fill="none" stroke="#1d1d1d" stroke-linejoin="round"/><polygon points="468.5 2239.5 567.5 2198.5 481.5 2140.5 468.5 2239.5" fill="none" stroke="#000" stroke-linejoin="round"/><polygon points="985.5 2247.5 1065.5 2137.5 893.5 2140.5 985.5 2247.5" fill="none" stroke="#161616" stroke-linejoin="round"/><polygon points="281.5 2232.5 304.5 2111.5 165.5 2148.5 281.5 2232.5" fill="none" stroke="#151515" stroke-linejoin="round"/><polygon points="468.5 2239.5 481.5 2140.5 385.5 2167.5 468.5 2239.5" fill="none" stroke="#020202" stroke-linejoin="round"/><polygon points="281.5 2232.5 362.5 2196.5 304.5 2111.5 281.5 2232.5" fill="none" stroke="#101010" stroke-linejoin="round"/><polygon points="893.5 2140.5 1065.5 2137.5 905.5 2086.5 893.5 2140.5" fill="none" stroke="#131313" stroke-linejoin="round"/><polygon points="165.5 2148.5 304.5 2111.5 192.5 2085.5 165.5 2148.5" fill="none" stroke="#151515" stroke-linejoin="round"/><polygon points="687.5 2164.5 662.5 2121.5 589.5 2141.5 687.5 2164.5" fill="none" stroke="#000" stroke-linejoin="round"/><polygon points="597.5 2214.5 589.5 2141.5 567.5 2198.5 597.5 2214.5" fill="none" stroke="#000" stroke-linejoin="round"/><polygon points="597.5 2214.5 687.5 2164.5 589.5 2141.5 597.5 2214.5" fill="none" stroke="#000" stroke-linejoin="round"/><polygon points="1065.5 2137.5 982.5 2038.5 905.5 2086.5 1065.5 2137.5" fill="none" stroke="#141414" stroke-linejoin="round"/><polygon points="567.5 2198.5 589.5 2141.5 481.5 2140.5 567.5 2198.5" fill="none" stroke="#000" stroke-linejoin="round"/><polygon points="1111.5 2205.5 1141.5 2083.5 1065.5 2137.5 1111.5 2205.5" fill="none" stroke="#1d1d1d" stroke-linejoin="round"/><polygon points="362.5 2196.5 385.5 2167.5 304.5 2111.5 362.5 2196.5" fill="none" stroke="#0c0c0c" stroke-linejoin="round"/><polygon points="385.5 2167.5 481.5 2140.5 461.5 2063.5 385.5 2167.5" fill="none" stroke="#000" stroke-linejoin="round"/><polygon points="0.5 2175.5 101.5 2169.5 157.5 1971.5 0.5 2175.5" fill="none" stroke="#1d1d1d" stroke-linejoin="round"/><polygon points="0.5 2175.5 157.5 1971.5 3.5 1900.5 0.5 2175.5" fill="none" stroke="#1d1d1d" stroke-linejoin="round"/><polygon points="687.5 2164.5 695.5 2133.5 662.5 2121.5 687.5 2164.5" fill="none" stroke="#000" stroke-linejoin="round"/><polygon points="101.5 2169.5 165.5 2148.5 192.5 2085.5 101.5 2169.5" fill="none" stroke="#1a1a1a" stroke-linejoin="round"/><polygon points="101.5 2169.5 192.5 2085.5 157.5 1971.5 101.5 2169.5" fill="none" stroke="#191919" stroke-linejoin="round"/><polygon points="385.5 2167.5 461.5 2063.5 304.5 2111.5 385.5 2167.5" fill="none" stroke="#060606" stroke-linejoin="round"/><polygon points="695.5 2133.5 849.5 2111.5 708.5 1998.5 695.5 2133.5" fill="none" stroke="#000" stroke-linejoin="round"/><polygon points="589.5 2141.5 461.5 2063.5 481.5 2140.5 589.5 2141.5" fill="none" stroke="#000" stroke-linejoin="round"/><polygon points="893.5 2140.5 905.5 2086.5 849.5 2111.5 893.5 2140.5" fill="none" stroke="#0b0b0b" stroke-linejoin="round"/><polygon points="589.5 2141.5 635.5 1997.5 461.5 2063.5 589.5 2141.5" fill="none" stroke="#000" stroke-linejoin="round"/><polygon points="589.5 2141.5 652.5 2035.5 635.5 1997.5 589.5 2141.5" fill="none" stroke="#000" stroke-linejoin="round"/><polygon points="589.5 2141.5 662.5 2121.5 652.5 2035.5 589.5 2141.5" fill="none" stroke="#000" stroke-linejoin="round"/><polygon points="1065.5 2137.5 1067.5 1999.5 982.5 2038.5 1065.5 2137.5" fill="none" stroke="#171717" stroke-linejoin="round"/><polygon points="1065.5 2137.5 1141.5 2083.5 1067.5 1999.5 1065.5 2137.5" fill="none" stroke="#1b1b1b" stroke-linejoin="round"/><polygon points="304.5 2111.5 274.5 2016.5 192.5 2085.5 304.5 2111.5" fill="none" stroke="#111" stroke-linejoin="round"/><polygon points="304.5 2111.5 461.5 2063.5 274.5 2016.5 304.5 2111.5" fill="none" stroke="#090909" stroke-linejoin="round"/><polygon points="695.5 2133.5 652.5 2035.5 662.5 2121.5 695.5 2133.5" fill="none" stroke="#000" stroke-linejoin="round"/><polygon points="695.5 2133.5 708.5 1998.5 652.5 2035.5 695.5 2133.5" fill="none" stroke="#000" stroke-linejoin="round"/><polygon points="461.5 2063.5 338.5 1937.5 274.5 2016.5 461.5 2063.5" fill="none" stroke="#070707" stroke-linejoin="round"/><polygon points="849.5 2111.5 898.5 2052.5 708.5 1998.5 849.5 2111.5" fill="none" stroke="#020202" stroke-linejoin="round"/><polygon points="898.5 2052.5 860.5 1931.5 708.5 1998.5 898.5 2052.5" fill="none" stroke="#030303" stroke-linejoin="round"/><polygon points="849.5 2111.5 905.5 2086.5 898.5 2052.5 849.5 2111.5" fill="none" stroke="#0b0b0b" stroke-linejoin="round"/><polygon points="898.5 2052.5 910.5 1997.5 860.5 1931.5 898.5 2052.5" fill="none" stroke="#0a0a0a" stroke-linejoin="round"/><polygon points="461.5 2063.5 635.5 1997.5 554.5 1878.5 461.5 2063.5" fill="none" stroke="#000" stroke-linejoin="round"/><polygon points="192.5 2085.5 274.5 2016.5 157.5 1971.5 192.5 2085.5" fill="none" stroke="#141414" stroke-linejoin="round"/><polygon points="905.5 2086.5 982.5 2038.5 898.5 2052.5 905.5 2086.5" fill="none" stroke="#0f0f0f" stroke-linejoin="round"/><polygon points="1141.5 2083.5 1153.5 1965.5 1067.5 1999.5 1141.5 2083.5" fill="none" stroke="#1b1b1b" stroke-linejoin="round"/><polygon points="1153.5 1597.5 1147.5 1309.5 1133.5 1459.5 1153.5 1597.5" fill="none" stroke="#171717" stroke-linejoin="round"/><polygon points="982.5 2038.5 1067.5 1999.5 1029.5 1973.5 982.5 2038.5" fill="none" stroke="#161616" stroke-linejoin="round"/><polygon points="898.5 2052.5 982.5 2038.5 910.5 1997.5 898.5 2052.5" fill="none" stroke="#0e0e0e" stroke-linejoin="round"/><polygon points="461.5 2063.5 554.5 1878.5 338.5 1937.5 461.5 2063.5" fill="none" stroke="#000" stroke-linejoin="round"/><polygon points="338.5 1937.5 554.5 1878.5 341.5 1906.5 338.5 1937.5" fill="none" stroke="#020202" stroke-linejoin="round"/><polygon points="652.5 2035.5 708.5 1998.5 635.5 1997.5 652.5 2035.5" fill="none" stroke="#000" stroke-linejoin="round"/><polygon points="982.5 2038.5 968.5 1919.5 910.5 1997.5 982.5 2038.5" fill="none" stroke="#101010" stroke-linejoin="round"/><polygon points="982.5 2038.5 1029.5 1973.5 968.5 1919.5 982.5 2038.5" fill="none" stroke="#131313" stroke-linejoin="round"/><polygon points="274.5 2016.5 245.5 1904.5 157.5 1971.5 274.5 2016.5" fill="none" stroke="#121212" stroke-linejoin="round"/><polygon points="635.5 1997.5 603.5 1880.5 554.5 1878.5 635.5 1997.5" fill="none" stroke="#000" stroke-linejoin="round"/><polygon points="708.5 1998.5 672.5 1954.5 635.5 1997.5 708.5 1998.5" fill="none" stroke="#000" stroke-linejoin="round"/><polygon points="1067.5 1999.5 1153.5 1965.5 1093.5 1941.5 1067.5 1999.5" fill="none" stroke="#1a1a1a" stroke-linejoin="round"/><polygon points="274.5 2016.5 338.5 1937.5 245.5 1904.5 274.5 2016.5" fill="none" stroke="#0d0d0d" stroke-linejoin="round"/><polygon points="1130.5 1886.5 1153.5 1597.5 1099.5 1810.5 1130.5 1886.5" fill="none" stroke="#191919" stroke-linejoin="round"/><polygon points="672.5 1954.5 860.5 1931.5 845.5 1841.5 672.5 1954.5" fill="none" stroke="#020202" stroke-linejoin="round"/><polygon points="157.5 1971.5 54.5 1835.5 3.5 1900.5 157.5 1971.5" fill="none" stroke="#1a1a1a" stroke-linejoin="round"/><polygon points="635.5 1997.5 672.5 1954.5 643.5 1898.5 635.5 1997.5" fill="none" stroke="#000" stroke-linejoin="round"/><polygon points="635.5 1997.5 643.5 1898.5 603.5 1880.5 635.5 1997.5" fill="none" stroke="#000" stroke-linejoin="round"/><polygon points="708.5 1998.5 860.5 1931.5 672.5 1954.5 708.5 1998.5" fill="none" stroke="#000" stroke-linejoin="round"/><polygon points="1067.5 1999.5 1093.5 1941.5 1029.5 1973.5 1067.5 1999.5" fill="none" stroke="#171717" stroke-linejoin="round"/><polygon points="910.5 1997.5 968.5 1919.5 860.5 1931.5 910.5 1997.5" fill="none" stroke="#0c0c0c" stroke-linejoin="round"/><polygon points="341.5 1906.5 554.5 1878.5 512.5 1804.5 341.5 1906.5" fill="none" stroke="#000" stroke-linejoin="round"/><polygon points="341.5 1906.5 512.5 1804.5 441.5 1781.5 341.5 1906.5" fill="none" stroke="#020202" stroke-linejoin="round"/><polygon points="860.5 1931.5 968.5 1919.5 940.5 1877.5 860.5 1931.5" fill="none" stroke="#0d0d0d" stroke-linejoin="round"/><polygon points="672.5 1954.5 845.5 1841.5 643.5 1898.5 672.5 1954.5" fill="none" stroke="#000" stroke-linejoin="round"/><polygon points="1029.5 1973.5 1093.5 1941.5 1029.5 1866.5 1029.5 1973.5" fill="none" stroke="#161616" stroke-linejoin="round"/><polygon points="1029.5 1973.5 1029.5 1866.5 968.5 1919.5 1029.5 1973.5" fill="none" stroke="#141414" stroke-linejoin="round"/><polygon points="157.5 1971.5 245.5 1904.5 248.5 1891.5 157.5 1971.5" fill="none" stroke="#121212" stroke-linejoin="round"/><polygon points="157.5 1971.5 248.5 1891.5 54.5 1835.5 157.5 1971.5" fill="none" stroke="#151515" stroke-linejoin="round"/><polygon points="338.5 1937.5 341.5 1906.5 245.5 1904.5 338.5 1937.5" fill="none" stroke="#0b0b0b" stroke-linejoin="round"/><polygon points="1153.5 1965.5 1130.5 1886.5 1093.5 1941.5 1153.5 1965.5" fill="none" stroke="#1a1a1a" stroke-linejoin="round"/><polygon points="3.5 1900.5 54.5 1835.5 0.5 1553.5 3.5 1900.5" fill="none" stroke="#1a1a1a" stroke-linejoin="round"/><polygon points="643.5 1898.5 845.5 1841.5 780.5 1743.5 643.5 1898.5" fill="none" stroke="#010101" stroke-linejoin="round"/><polygon points="643.5 1898.5 780.5 1743.5 628.5 1818.5 643.5 1898.5" fill="none" stroke="#000" stroke-linejoin="round"/><polygon points="341.5 1906.5 248.5 1891.5 245.5 1904.5 341.5 1906.5" fill="none" stroke="#0d0d0d" stroke-linejoin="round"/><polygon points="1093.5 1941.5 1130.5 1886.5 1029.5 1866.5 1093.5 1941.5" fill="none" stroke="#181818" stroke-linejoin="round"/><polygon points="248.5 1891.5 129.5 1733.5 54.5 1835.5 248.5 1891.5" fill="none" stroke="#151515" stroke-linejoin="round"/><polygon points="860.5 1931.5 940.5 1877.5 845.5 1841.5 860.5 1931.5" fill="none" stroke="#0a0a0a" stroke-linejoin="round"/><polygon points="968.5 1919.5 1029.5 1866.5 940.5 1877.5 968.5 1919.5" fill="none" stroke="#111" stroke-linejoin="round"/><polygon points="1029.5 1866.5 1099.5 1810.5 1054.5 1814.5 1029.5 1866.5" fill="none" stroke="#161616" stroke-linejoin="round"/><polygon points="1130.5 1886.5 1099.5 1810.5 1029.5 1866.5 1130.5 1886.5" fill="none" stroke="#171717" stroke-linejoin="round"/><polygon points="248.5 1891.5 188.5 1716.5 129.5 1733.5 248.5 1891.5" fill="none" stroke="#111" stroke-linejoin="round"/><polygon points="341.5 1906.5 344.5 1757.5 248.5 1891.5 341.5 1906.5" fill="none" stroke="#0a0a0a" stroke-linejoin="round"/><polygon points="341.5 1906.5 441.5 1781.5 344.5 1757.5 341.5 1906.5" fill="none" stroke="#050505" stroke-linejoin="round"/><polygon points="628.5 1818.5 780.5 1743.5 710.5 1720.5 628.5 1818.5" fill="none" stroke="#000" stroke-linejoin="round"/><polygon points="940.5 1877.5 1029.5 1866.5 972.5 1810.5 940.5 1877.5" fill="none" stroke="#111" stroke-linejoin="round"/><polygon points="1099.5 1810.5 1153.5 1597.5 1133.5 1613.5 1099.5 1810.5" fill="none" stroke="#181818" stroke-linejoin="round"/><polygon points="643.5 1898.5 628.5 1818.5 603.5 1880.5 643.5 1898.5" fill="none" stroke="#000" stroke-linejoin="round"/><polygon points="248.5 1891.5 344.5 1757.5 188.5 1716.5 248.5 1891.5" fill="none" stroke="#0d0d0d" stroke-linejoin="round"/><polygon points="940.5 1877.5 972.5 1810.5 845.5 1841.5 940.5 1877.5" fill="none" stroke="#0d0d0d" stroke-linejoin="round"/><polygon points="554.5 1878.5 628.5 1818.5 581.5 1775.5 554.5 1878.5" fill="none" stroke="#000" stroke-linejoin="round"/><polygon points="603.5 1880.5 628.5 1818.5 554.5 1878.5 603.5 1880.5" fill="none" stroke="#000" stroke-linejoin="round"/><polygon points="554.5 1878.5 581.5 1775.5 512.5 1804.5 554.5 1878.5" fill="none" stroke="#000" stroke-linejoin="round"/><polygon points="54.5 1835.5 112.5 1671.5 0.5 1553.5 54.5 1835.5" fill="none" stroke="#171717" stroke-linejoin="round"/><polygon points="845.5 1841.5 972.5 1810.5 956.5 1754.5 845.5 1841.5" fill="none" stroke="#0d0d0d" stroke-linejoin="round"/><polygon points="1029.5 1866.5 1054.5 1814.5 972.5 1810.5 1029.5 1866.5" fill="none" stroke="#141414" stroke-linejoin="round"/><polygon points="512.5 1804.5 459.5 1772.5 441.5 1781.5 512.5 1804.5" fill="none" stroke="#000" stroke-linejoin="round"/><polygon points="54.5 1835.5 129.5 1733.5 112.5 1671.5 54.5 1835.5" fill="none" stroke="#161616" stroke-linejoin="round"/><polygon points="845.5 1841.5 956.5 1754.5 822.5 1743.5 845.5 1841.5" fill="none" stroke="#0a0a0a" stroke-linejoin="round"/><polygon points="845.5 1841.5 822.5 1743.5 780.5 1743.5 845.5 1841.5" fill="none" stroke="#050505" stroke-linejoin="round"/><polygon points="344.5 1757.5 209.5 1691.5 188.5 1716.5 344.5 1757.5" fill="none" stroke="#0c0c0c" stroke-linejoin="round"/><polygon points="956.5 1754.5 896.5 1695.5 822.5 1743.5 956.5 1754.5" fill="none" stroke="#0a0a0a" stroke-linejoin="round"/><polygon points="1054.5 1814.5 956.5 1754.5 972.5 1810.5 1054.5 1814.5" fill="none" stroke="#121212" stroke-linejoin="round"/><polygon points="628.5 1818.5 710.5 1720.5 581.5 1775.5 628.5 1818.5" fill="none" stroke="#000" stroke-linejoin="round"/><polygon points="1054.5 1814.5 1099.5 1810.5 1070.5 1625.5 1054.5 1814.5" fill="none" stroke="#161616" stroke-linejoin="round"/><polygon points="1054.5 1814.5 1070.5 1625.5 956.5 1754.5 1054.5 1814.5" fill="none" stroke="#131313" stroke-linejoin="round"/><polygon points="1099.5 1810.5 1133.5 1613.5 1070.5 1625.5 1099.5 1810.5" fill="none" stroke="#171717" stroke-linejoin="round"/><polygon points="512.5 1804.5 581.5 1775.5 468.5 1685.5 512.5 1804.5" fill="none" stroke="#000" stroke-linejoin="round"/><polygon points="512.5 1804.5 468.5 1685.5 459.5 1772.5 512.5 1804.5" fill="none" stroke="#000" stroke-linejoin="round"/><polygon points="344.5 1757.5 349.5 1703.5 209.5 1691.5 344.5 1757.5" fill="none" stroke="#080808" stroke-linejoin="round"/><polygon points="581.5 1775.5 710.5 1720.5 665.5 1649.5 581.5 1775.5" fill="none" stroke="#000" stroke-linejoin="round"/><polygon points="441.5 1781.5 349.5 1703.5 344.5 1757.5 441.5 1781.5" fill="none" stroke="#040404" stroke-linejoin="round"/><polygon points="441.5 1781.5 459.5 1772.5 468.5 1685.5 441.5 1781.5" fill="none" stroke="#000" stroke-linejoin="round"/><polygon points="441.5 1781.5 468.5 1685.5 349.5 1703.5 441.5 1781.5" fill="none" stroke="#000" stroke-linejoin="round"/><polygon points="956.5 1754.5 1070.5 1625.5 950.5 1640.5 956.5 1754.5" fill="none" stroke="#101010" stroke-linejoin="round"/><polygon points="581.5 1775.5 520.5 1591.5 468.5 1685.5 581.5 1775.5" fill="none" stroke="#000" stroke-linejoin="round"/><polygon points="581.5 1775.5 665.5 1649.5 520.5 1591.5 581.5 1775.5" fill="none" stroke="#000" stroke-linejoin="round"/><polygon points="950.5 1640.5 1070.5 1625.5 996.5 1609.5 950.5 1640.5" fill="none" stroke="#111" stroke-linejoin="round"/><polygon points="956.5 1754.5 950.5 1640.5 896.5 1695.5 956.5 1754.5" fill="none" stroke="#0d0d0d" stroke-linejoin="round"/><polygon points="822.5 1743.5 896.5 1695.5 829.5 1610.5 822.5 1743.5" fill="none" stroke="#060606" stroke-linejoin="round"/><polygon points="780.5 1743.5 713.5 1630.5 710.5 1720.5 780.5 1743.5" fill="none" stroke="#000" stroke-linejoin="round"/><polygon points="780.5 1743.5 822.5 1743.5 829.5 1610.5 780.5 1743.5" fill="none" stroke="#040404" stroke-linejoin="round"/><polygon points="780.5 1743.5 829.5 1610.5 713.5 1630.5 780.5 1743.5" fill="none" stroke="#000" stroke-linejoin="round"/><polygon points="349.5 1703.5 241.5 1575.5 209.5 1691.5 349.5 1703.5" fill="none" stroke="#090909" stroke-linejoin="round"/><polygon points="129.5 1733.5 188.5 1716.5 112.5 1671.5 129.5 1733.5" fill="none" stroke="#131313" stroke-linejoin="round"/><polygon points="896.5 1695.5 869.5 1611.5 829.5 1610.5 896.5 1695.5" fill="none" stroke="#070707" stroke-linejoin="round"/><polygon points="349.5 1703.5 371.5 1600.5 241.5 1575.5 349.5 1703.5" fill="none" stroke="#040404" stroke-linejoin="round"/><polygon points="349.5 1703.5 468.5 1685.5 371.5 1600.5 349.5 1703.5" fill="none" stroke="#000" stroke-linejoin="round"/><polygon points="188.5 1716.5 209.5 1691.5 112.5 1671.5 188.5 1716.5" fill="none" stroke="#111" stroke-linejoin="round"/><polygon points="710.5 1720.5 713.5 1630.5 665.5 1649.5 710.5 1720.5" fill="none" stroke="#000" stroke-linejoin="round"/><polygon points="371.5 1600.5 328.5 1554.5 241.5 1575.5 371.5 1600.5" fill="none" stroke="#020202" stroke-linejoin="round"/><polygon points="209.5 1691.5 241.5 1575.5 112.5 1671.5 209.5 1691.5" fill="none" stroke="#0f0f0f" stroke-linejoin="round"/><polygon points="896.5 1695.5 950.5 1640.5 869.5 1611.5 896.5 1695.5" fill="none" stroke="#0a0a0a" stroke-linejoin="round"/><polygon points="468.5 1685.5 520.5 1591.5 371.5 1600.5 468.5 1685.5" fill="none" stroke="#000" stroke-linejoin="round"/><polygon points="112.5 1671.5 241.5 1575.5 232.5 1550.5 112.5 1671.5" fill="none" stroke="#0d0d0d" stroke-linejoin="round"/><polygon points="112.5 1671.5 232.5 1550.5 0.5 1553.5 112.5 1671.5" fill="none" stroke="#131313" stroke-linejoin="round"/><polygon points="829.5 1610.5 783.5 1547.5 767.5 1548.5 829.5 1610.5" fill="none" stroke="#000" stroke-linejoin="round"/><polygon points="713.5 1630.5 829.5 1610.5 767.5 1548.5 713.5 1630.5" fill="none" stroke="#000" stroke-linejoin="round"/><polygon points="950.5 1640.5 872.5 1587.5 869.5 1611.5 950.5 1640.5" fill="none" stroke="#090909" stroke-linejoin="round"/><polygon points="665.5 1649.5 713.5 1630.5 702.5 1586.5 665.5 1649.5" fill="none" stroke="#000" stroke-linejoin="round"/><polygon points="665.5 1649.5 702.5 1586.5 520.5 1591.5 665.5 1649.5" fill="none" stroke="#000" stroke-linejoin="round"/><polygon points="713.5 1630.5 767.5 1548.5 702.5 1586.5 713.5 1630.5" fill="none" stroke="#000" stroke-linejoin="round"/><polygon points="950.5 1640.5 996.5 1609.5 872.5 1587.5 950.5 1640.5" fill="none" stroke="#0c0c0c" stroke-linejoin="round"/><polygon points="520.5 1591.5 702.5 1586.5 516.5 1453.5 520.5 1591.5" fill="none" stroke="#000" stroke-linejoin="round"/><polygon points="1070.5 1625.5 1040.5 1501.5 996.5 1609.5 1070.5 1625.5" fill="none" stroke="#121212" stroke-linejoin="round"/><polygon points="1070.5 1625.5 1133.5 1613.5 1110.5 1519.5 1070.5 1625.5" fill="none" stroke="#161616" stroke-linejoin="round"/><polygon points="371.5 1600.5 520.5 1591.5 516.5 1453.5 371.5 1600.5" fill="none" stroke="#000" stroke-linejoin="round"/><polygon points="1070.5 1625.5 1110.5 1519.5 1040.5 1501.5 1070.5 1625.5" fill="none" stroke="#141414" stroke-linejoin="round"/><polygon points="232.5 1550.5 238.5 1439.5 1.5 1424.5 232.5 1550.5" fill="none" stroke="#0e0e0e" stroke-linejoin="round"/><polygon points="0.5 1553.5 232.5 1550.5 1.5 1424.5 0.5 1553.5" fill="none" stroke="#141414" stroke-linejoin="round"/><polygon points="702.5 1586.5 713.5 1415.5 516.5 1453.5 702.5 1586.5" fill="none" stroke="#000" stroke-linejoin="round"/><polygon points="872.5 1587.5 1040.5 1501.5 891.5 1440.5 872.5 1587.5" fill="none" stroke="#0a0a0a" stroke-linejoin="round"/><polygon points="371.5 1600.5 516.5 1453.5 338.5 1489.5 371.5 1600.5" fill="none" stroke="#000" stroke-linejoin="round"/><polygon points="996.5 1609.5 1040.5 1501.5 872.5 1587.5 996.5 1609.5" fill="none" stroke="#0d0d0d" stroke-linejoin="round"/><polygon points="869.5 1611.5 872.5 1587.5 829.5 1610.5 869.5 1611.5" fill="none" stroke="#050505" stroke-linejoin="round"/><polygon points="1133.5 1613.5 1153.5 1597.5 1110.5 1519.5 1133.5 1613.5" fill="none" stroke="#171717" stroke-linejoin="round"/><polygon points="1153.5 1597.5 1133.5 1459.5 1110.5 1519.5 1153.5 1597.5" fill="none" stroke="#171717" stroke-linejoin="round"/><polygon points="829.5 1610.5 872.5 1587.5 783.5 1547.5 829.5 1610.5" fill="none" stroke="#020202" stroke-linejoin="round"/><polygon points="1040.5 1501.5 965.5 1423.5 891.5 1440.5 1040.5 1501.5" fill="none" stroke="#0c0c0c" stroke-linejoin="round"/><polygon points="371.5 1600.5 338.5 1489.5 328.5 1554.5 371.5 1600.5" fill="none" stroke="#000" stroke-linejoin="round"/><polygon points="328.5 1554.5 302.5 1499.5 232.5 1550.5 328.5 1554.5" fill="none" stroke="#040404" stroke-linejoin="round"/><polygon points="241.5 1575.5 328.5 1554.5 232.5 1550.5 241.5 1575.5" fill="none" stroke="#060606" stroke-linejoin="round"/><polygon points="783.5 1547.5 857.5 1430.5 776.5 1487.5 783.5 1547.5" fill="none" stroke="#000" stroke-linejoin="round"/><polygon points="783.5 1547.5 891.5 1440.5 857.5 1430.5 783.5 1547.5" fill="none" stroke="#010101" stroke-linejoin="round"/><polygon points="872.5 1587.5 891.5 1440.5 783.5 1547.5 872.5 1587.5" fill="none" stroke="#020202" stroke-linejoin="round"/><polygon points="702.5 1586.5 767.5 1548.5 776.5 1487.5 702.5 1586.5" fill="none" stroke="#000" stroke-linejoin="round"/><polygon points="702.5 1586.5 776.5 1487.5 713.5 1415.5 702.5 1586.5" fill="none" stroke="#000" stroke-linejoin="round"/><polygon points="776.5 1487.5 857.5 1430.5 783.5 1465.5 776.5 1487.5" fill="none" stroke="#000" stroke-linejoin="round"/><polygon points="328.5 1554.5 338.5 1489.5 302.5 1499.5 328.5 1554.5" fill="none" stroke="#000" stroke-linejoin="round"/><polygon points="516.5 1453.5 713.5 1415.5 604.5 1350.5 516.5 1453.5" fill="none" stroke="#000" stroke-linejoin="round"/><polygon points="232.5 1550.5 302.5 1499.5 238.5 1439.5 232.5 1550.5" fill="none" stroke="#060606" stroke-linejoin="round"/><polygon points="767.5 1548.5 783.5 1547.5 776.5 1487.5 767.5 1548.5" fill="none" stroke="#000" stroke-linejoin="round"/><polygon points="238.5 1439.5 188.5 1315.5 1.5 1424.5 238.5 1439.5" fill="none" stroke="#0e0e0e" stroke-linejoin="round"/><polygon points="1110.5 1519.5 1133.5 1459.5 1040.5 1501.5 1110.5 1519.5" fill="none" stroke="#151515" stroke-linejoin="round"/><polygon points="1.5 1424.5 188.5 1315.5 32.5 1322.5 1.5 1424.5" fill="none" stroke="#131313" stroke-linejoin="round"/><polygon points="776.5 1487.5 783.5 1465.5 713.5 1415.5 776.5 1487.5" fill="none" stroke="#000" stroke-linejoin="round"/><polygon points="338.5 1489.5 516.5 1453.5 477.5 1258.5 338.5 1489.5" fill="none" stroke="#000" stroke-linejoin="round"/><polygon points="1040.5 1501.5 1133.5 1459.5 1102.5 1337.5 1040.5 1501.5" fill="none" stroke="#141414" stroke-linejoin="round"/><polygon points="1040.5 1501.5 1102.5 1337.5 965.5 1423.5 1040.5 1501.5" fill="none" stroke="#111" stroke-linejoin="round"/><polygon points="302.5 1499.5 338.5 1489.5 238.5 1439.5 302.5 1499.5" fill="none" stroke="#020202" stroke-linejoin="round"/><polygon points="338.5 1489.5 275.5 1276.5 238.5 1439.5 338.5 1489.5" fill="none" stroke="#020202" stroke-linejoin="round"/><polygon points="338.5 1489.5 477.5 1258.5 275.5 1276.5 338.5 1489.5" fill="none" stroke="#000" stroke-linejoin="round"/><polygon points="32.5 1322.5 188.5 1315.5 147.5 1284.5 32.5 1322.5" fill="none" stroke="#0f0f0f" stroke-linejoin="round"/><polygon points="783.5 1465.5 825.5 1365.5 713.5 1415.5 783.5 1465.5" fill="none" stroke="#000" stroke-linejoin="round"/><polygon points="783.5 1465.5 857.5 1430.5 840.5 1374.5 783.5 1465.5" fill="none" stroke="#000" stroke-linejoin="round"/><polygon points="783.5 1465.5 840.5 1374.5 825.5 1365.5 783.5 1465.5" fill="none" stroke="#000" stroke-linejoin="round"/><polygon points="1133.5 1459.5 1147.5 1309.5 1102.5 1337.5 1133.5 1459.5" fill="none" stroke="#161616" stroke-linejoin="round"/><polygon points="1.5 1424.5 32.5 1322.5 0.5 1265.5 1.5 1424.5" fill="none" stroke="#161616" stroke-linejoin="round"/><polygon points="891.5 1440.5 965.5 1423.5 923.5 1373.5 891.5 1440.5" fill="none" stroke="#080808" stroke-linejoin="round"/><polygon points="516.5 1453.5 604.5 1350.5 477.5 1258.5 516.5 1453.5" fill="none" stroke="#000" stroke-linejoin="round"/><polygon points="238.5 1439.5 275.5 1276.5 188.5 1315.5 238.5 1439.5" fill="none" stroke="#070707" stroke-linejoin="round"/><polygon points="891.5 1440.5 923.5 1373.5 857.5 1430.5 891.5 1440.5" fill="none" stroke="#050505" stroke-linejoin="round"/><polygon points="923.5 1373.5 1102.5 1337.5 1024.5 1250.5 923.5 1373.5" fill="none" stroke="#0f0f0f" stroke-linejoin="round"/><polygon points="965.5 1423.5 1102.5 1337.5 923.5 1373.5 965.5 1423.5" fill="none" stroke="#0e0e0e" stroke-linejoin="round"/><polygon points="857.5 1430.5 923.5 1373.5 840.5 1374.5 857.5 1430.5" fill="none" stroke="#030303" stroke-linejoin="round"/><polygon points="1147.5 1309.5 1153.5 1152.5 1132.5 1242.5 1147.5 1309.5" fill="none" stroke="#161616" stroke-linejoin="round"/><polygon points="923.5 1373.5 1024.5 1250.5 924.5 1286.5 923.5 1373.5" fill="none" stroke="#0b0b0b" stroke-linejoin="round"/><polygon points="713.5 1415.5 825.5 1365.5 740.5 1163.5 713.5 1415.5" fill="none" stroke="#000" stroke-linejoin="round"/><polygon points="713.5 1415.5 740.5 1163.5 604.5 1350.5 713.5 1415.5" fill="none" stroke="#000" stroke-linejoin="round"/><polygon points="604.5 1350.5 740.5 1163.5 565.5 1224.5 604.5 1350.5" fill="none" stroke="#000" stroke-linejoin="round"/><polygon points="604.5 1350.5 565.5 1224.5 477.5 1258.5 604.5 1350.5" fill="none" stroke="#000" stroke-linejoin="round"/><polygon points="840.5 1374.5 923.5 1373.5 924.5 1286.5 840.5 1374.5" fill="none" stroke="#050505" stroke-linejoin="round"/><polygon points="840.5 1374.5 924.5 1286.5 825.5 1365.5 840.5 1374.5" fill="none" stroke="#020202" stroke-linejoin="round"/><polygon points="825.5 1365.5 924.5 1286.5 740.5 1163.5 825.5 1365.5" fill="none" stroke="#000" stroke-linejoin="round"/><polygon points="275.5 1276.5 477.5 1258.5 450.5 1185.5 275.5 1276.5" fill="none" stroke="#000" stroke-linejoin="round"/><polygon points="188.5 1315.5 275.5 1276.5 192.5 1262.5 188.5 1315.5" fill="none" stroke="#080808" stroke-linejoin="round"/><polygon points="32.5 1322.5 147.5 1284.5 38.5 1227.5 32.5 1322.5" fill="none" stroke="#121212" stroke-linejoin="round"/><polygon points="1102.5 1337.5 1039.5 1236.5 1024.5 1250.5 1102.5 1337.5" fill="none" stroke="#111" stroke-linejoin="round"/><polygon points="1102.5 1337.5 1147.5 1309.5 1132.5 1242.5 1102.5 1337.5" fill="none" stroke="#151515" stroke-linejoin="round"/><polygon points="1102.5 1337.5 1132.5 1242.5 1039.5 1236.5 1102.5 1337.5" fill="none" stroke="#131313" stroke-linejoin="round"/><polygon points="924.5 1286.5 906.5 1141.5 740.5 1163.5 924.5 1286.5" fill="none" stroke="#020202" stroke-linejoin="round"/><polygon points="32.5 1322.5 38.5 1227.5 0.5 1265.5 32.5 1322.5" fill="none" stroke="#151515" stroke-linejoin="round"/><polygon points="275.5 1276.5 450.5 1185.5 427.5 1150.5 275.5 1276.5" fill="none" stroke="#000" stroke-linejoin="round"/><polygon points="275.5 1276.5 427.5 1150.5 323.5 1127.5 275.5 1276.5" fill="none" stroke="#000" stroke-linejoin="round"/><polygon points="188.5 1315.5 192.5 1262.5 147.5 1284.5 188.5 1315.5" fill="none" stroke="#0b0b0b" stroke-linejoin="round"/><polygon points="740.5 1163.5 906.5 1141.5 802.5 1104.5 740.5 1163.5" fill="none" stroke="#000" stroke-linejoin="round"/><polygon points="275.5 1276.5 311.5 1130.5 246.5 1202.5 275.5 1276.5" fill="none" stroke="#020202" stroke-linejoin="round"/><polygon points="275.5 1276.5 323.5 1127.5 311.5 1130.5 275.5 1276.5" fill="none" stroke="#000" stroke-linejoin="round"/><polygon points="275.5 1276.5 193.5 1250.5 192.5 1262.5 275.5 1276.5" fill="none" stroke="#080808" stroke-linejoin="round"/><polygon points="275.5 1276.5 246.5 1202.5 193.5 1250.5 275.5 1276.5" fill="none" stroke="#060606" stroke-linejoin="round"/><polygon points="147.5 1284.5 68.5 1179.5 40.5 1221.5 147.5 1284.5" fill="none" stroke="#111" stroke-linejoin="round"/><polygon points="147.5 1284.5 192.5 1262.5 193.5 1250.5 147.5 1284.5" fill="none" stroke="#0b0b0b" stroke-linejoin="round"/><polygon points="147.5 1284.5 40.5 1221.5 38.5 1227.5 147.5 1284.5" fill="none" stroke="#121212" stroke-linejoin="round"/><polygon points="924.5 1286.5 1024.5 1250.5 945.5 1145.5 924.5 1286.5" fill="none" stroke="#0b0b0b" stroke-linejoin="round"/><polygon points="924.5 1286.5 945.5 1145.5 906.5 1141.5 924.5 1286.5" fill="none" stroke="#080808" stroke-linejoin="round"/><polygon points="565.5 1224.5 740.5 1163.5 729.5 1142.5 565.5 1224.5" fill="none" stroke="#000" stroke-linejoin="round"/><polygon points="147.5 1284.5 193.5 1250.5 68.5 1179.5 147.5 1284.5" fill="none" stroke="#0e0e0e" stroke-linejoin="round"/><polygon points="565.5 1224.5 729.5 1142.5 689.5 1099.5 565.5 1224.5" fill="none" stroke="#000" stroke-linejoin="round"/><polygon points="477.5 1258.5 565.5 1224.5 450.5 1185.5 477.5 1258.5" fill="none" stroke="#000" stroke-linejoin="round"/><polygon points="0.5 1265.5 38.5 1227.5 0.5 1152.5 0.5 1265.5" fill="none" stroke="#151515" stroke-linejoin="round"/><polygon points="1024.5 1250.5 1039.5 1236.5 945.5 1145.5 1024.5 1250.5" fill="none" stroke="#0e0e0e" stroke-linejoin="round"/><polygon points="38.5 1227.5 40.5 1221.5 0.5 1152.5 38.5 1227.5" fill="none" stroke="#141414" stroke-linejoin="round"/><polygon points="1132.5 1242.5 1153.5 1152.5 1039.5 1236.5 1132.5 1242.5" fill="none" stroke="#141414" stroke-linejoin="round"/><polygon points="193.5 1250.5 246.5 1202.5 68.5 1179.5 193.5 1250.5" fill="none" stroke="#0b0b0b" stroke-linejoin="round"/><polygon points="246.5 1202.5 239.5 1076.5 68.5 1179.5 246.5 1202.5" fill="none" stroke="#0a0a0a" stroke-linejoin="round"/><polygon points="565.5 1224.5 451.5 1171.5 450.5 1185.5 565.5 1224.5" fill="none" stroke="#000" stroke-linejoin="round"/><polygon points="1153.5 1152.5 1080.5 1061.5 1012.5 1078.5 1153.5 1152.5" fill="none" stroke="#121212" stroke-linejoin="round"/><polygon points="1039.5 1236.5 1153.5 1152.5 1012.5 1078.5 1039.5 1236.5" fill="none" stroke="#121212" stroke-linejoin="round"/><polygon points="1039.5 1236.5 1012.5 1078.5 945.5 1145.5 1039.5 1236.5" fill="none" stroke="#0d0d0d" stroke-linejoin="round"/><polygon points="565.5 1224.5 498.5 1079.5 451.5 1171.5 565.5 1224.5" fill="none" stroke="#000" stroke-linejoin="round"/><polygon points="565.5 1224.5 689.5 1099.5 498.5 1079.5 565.5 1224.5" fill="none" stroke="#000" stroke-linejoin="round"/><polygon points="40.5 1221.5 68.5 1179.5 0.5 1152.5 40.5 1221.5" fill="none" stroke="#141414" stroke-linejoin="round"/><polygon points="1153.5 815.5 1153.5 579.5 1142.5 752.5 1153.5 815.5" fill="none" stroke="#171717" stroke-linejoin="round"/><polygon points="38.5 1109.5 239.5 1076.5 208.5 1026.5 38.5 1109.5" fill="none" stroke="#0b0b0b" stroke-linejoin="round"/><polygon points="68.5 1179.5 239.5 1076.5 38.5 1109.5 68.5 1179.5" fill="none" stroke="#0f0f0f" stroke-linejoin="round"/><polygon points="246.5 1202.5 311.5 1130.5 239.5 1076.5 246.5 1202.5" fill="none" stroke="#030303" stroke-linejoin="round"/><polygon points="38.5 1109.5 208.5 1026.5 120.5 996.5 38.5 1109.5" fill="none" stroke="#0e0e0e" stroke-linejoin="round"/><polygon points="68.5 1179.5 38.5 1109.5 0.5 1152.5 68.5 1179.5" fill="none" stroke="#141414" stroke-linejoin="round"/><polygon points="450.5 1185.5 451.5 1171.5 427.5 1150.5 450.5 1185.5" fill="none" stroke="#000" stroke-linejoin="round"/><polygon points="0.5 533.5 32.5 381.5 0.5 0.5 0.5 533.5" fill="none" stroke="#191919" stroke-linejoin="round"/><polygon points="427.5 1150.5 394.5 1062.5 323.5 1127.5 427.5 1150.5" fill="none" stroke="#000" stroke-linejoin="round"/><polygon points="740.5 1163.5 802.5 1104.5 729.5 1142.5 740.5 1163.5" fill="none" stroke="#000" stroke-linejoin="round"/><polygon points="451.5 1171.5 498.5 1079.5 427.5 1150.5 451.5 1171.5" fill="none" stroke="#000" stroke-linejoin="round"/><polygon points="689.5 1099.5 684.5 995.5 498.5 1079.5 689.5 1099.5" fill="none" stroke="#000" stroke-linejoin="round"/><polygon points="729.5 1142.5 802.5 1104.5 775.5 1070.5 729.5 1142.5" fill="none" stroke="#000" stroke-linejoin="round"/><polygon points="427.5 1150.5 498.5 1079.5 481.5 1054.5 427.5 1150.5" fill="none" stroke="#000" stroke-linejoin="round"/><polygon points="0.5 1152.5 38.5 1109.5 0.5 1084.5 0.5 1152.5" fill="none" stroke="#151515" stroke-linejoin="round"/><polygon points="1153.5 1152.5 1153.5 1006.5 1080.5 1061.5 1153.5 1152.5" fill="none" stroke="#151515" stroke-linejoin="round"/><polygon points="906.5 1141.5 826.5 1022.5 802.5 1104.5 906.5 1141.5" fill="none" stroke="#000" stroke-linejoin="round"/><polygon points="427.5 1150.5 481.5 1054.5 394.5 1062.5 427.5 1150.5" fill="none" stroke="#000" stroke-linejoin="round"/><polygon points="945.5 1145.5 1012.5 1078.5 906.5 1141.5 945.5 1145.5" fill="none" stroke="#0a0a0a" stroke-linejoin="round"/><polygon points="729.5 1142.5 775.5 1070.5 689.5 1099.5 729.5 1142.5" fill="none" stroke="#000" stroke-linejoin="round"/><polygon points="498.5 1079.5 684.5 995.5 499.5 997.5 498.5 1079.5" fill="none" stroke="#000" stroke-linejoin="round"/><polygon points="906.5 1141.5 1012.5 1078.5 826.5 1022.5 906.5 1141.5" fill="none" stroke="#060606" stroke-linejoin="round"/><polygon points="0.5 1084.5 68.5 954.5 19.5 801.5 0.5 1084.5" fill="none" stroke="#141414" stroke-linejoin="round"/><polygon points="311.5 1130.5 323.5 1127.5 239.5 1076.5 311.5 1130.5" fill="none" stroke="#000" stroke-linejoin="round"/><polygon points="323.5 1127.5 394.5 1062.5 239.5 1076.5 323.5 1127.5" fill="none" stroke="#000" stroke-linejoin="round"/><polygon points="1012.5 1078.5 970.5 905.5 826.5 1022.5 1012.5 1078.5" fill="none" stroke="#080808" stroke-linejoin="round"/><polygon points="38.5 1109.5 120.5 996.5 0.5 1084.5 38.5 1109.5" fill="none" stroke="#121212" stroke-linejoin="round"/><polygon points="689.5 1099.5 775.5 1070.5 684.5 995.5 689.5 1099.5" fill="none" stroke="#000" stroke-linejoin="round"/><polygon points="802.5 1104.5 826.5 1022.5 775.5 1070.5 802.5 1104.5" fill="none" stroke="#000" stroke-linejoin="round"/><polygon points="394.5 1062.5 481.5 1054.5 424.5 1018.5 394.5 1062.5" fill="none" stroke="#000" stroke-linejoin="round"/><polygon points="239.5 1076.5 394.5 1062.5 363.5 903.5 239.5 1076.5" fill="none" stroke="#000" stroke-linejoin="round"/><polygon points="239.5 1076.5 363.5 903.5 208.5 1026.5 239.5 1076.5" fill="none" stroke="#010101" stroke-linejoin="round"/><polygon points="0.5 1084.5 120.5 996.5 68.5 954.5 0.5 1084.5" fill="none" stroke="#121212" stroke-linejoin="round"/><polygon points="1012.5 1078.5 1049.5 1011.5 970.5 905.5 1012.5 1078.5" fill="none" stroke="#0e0e0e" stroke-linejoin="round"/><polygon points="1012.5 1078.5 1080.5 1061.5 1049.5 1011.5 1012.5 1078.5" fill="none" stroke="#101010" stroke-linejoin="round"/><polygon points="498.5 1079.5 499.5 997.5 481.5 1054.5 498.5 1079.5" fill="none" stroke="#000" stroke-linejoin="round"/><polygon points="394.5 1062.5 424.5 1018.5 363.5 903.5 394.5 1062.5" fill="none" stroke="#000" stroke-linejoin="round"/><polygon points="775.5 1070.5 826.5 1022.5 738.5 937.5 775.5 1070.5" fill="none" stroke="#000" stroke-linejoin="round"/><polygon points="775.5 1070.5 738.5 937.5 684.5 995.5 775.5 1070.5" fill="none" stroke="#000" stroke-linejoin="round"/><polygon points="499.5 997.5 684.5 995.5 620.5 879.5 499.5 997.5" fill="none" stroke="#000" stroke-linejoin="round"/><polygon points="481.5 1054.5 499.5 997.5 490.5 1001.5 481.5 1054.5" fill="none" stroke="#000" stroke-linejoin="round"/><polygon points="1080.5 1061.5 1153.5 1006.5 1049.5 1011.5 1080.5 1061.5" fill="none" stroke="#131313" stroke-linejoin="round"/><polygon points="481.5 1054.5 490.5 1001.5 424.5 1018.5 481.5 1054.5" fill="none" stroke="#000" stroke-linejoin="round"/><polygon points="1049.5 1011.5 1153.5 1006.5 1153.5 978.5 1049.5 1011.5" fill="none" stroke="#141414" stroke-linejoin="round"/><polygon points="208.5 1026.5 363.5 903.5 256.5 822.5 208.5 1026.5" fill="none" stroke="#000" stroke-linejoin="round"/><polygon points="208.5 1026.5 190.5 819.5 120.5 996.5 208.5 1026.5" fill="none" stroke="#0a0a0a" stroke-linejoin="round"/><polygon points="208.5 1026.5 256.5 822.5 190.5 819.5 208.5 1026.5" fill="none" stroke="#060606" stroke-linejoin="round"/><polygon points="1049.5 1011.5 1153.5 978.5 1060.5 894.5 1049.5 1011.5" fill="none" stroke="#131313" stroke-linejoin="round"/><polygon points="826.5 1022.5 885.5 797.5 738.5 937.5 826.5 1022.5" fill="none" stroke="#000" stroke-linejoin="round"/><polygon points="826.5 1022.5 970.5 905.5 885.5 797.5 826.5 1022.5" fill="none" stroke="#050505" stroke-linejoin="round"/><polygon points="499.5 997.5 620.5 879.5 490.5 881.5 499.5 997.5" fill="none" stroke="#000" stroke-linejoin="round"/><polygon points="424.5 1018.5 490.5 1001.5 490.5 881.5 424.5 1018.5" fill="none" stroke="#000" stroke-linejoin="round"/><polygon points="424.5 1018.5 490.5 881.5 363.5 903.5 424.5 1018.5" fill="none" stroke="#000" stroke-linejoin="round"/><polygon points="1049.5 1011.5 1060.5 894.5 970.5 905.5 1049.5 1011.5" fill="none" stroke="#0f0f0f" stroke-linejoin="round"/><polygon points="490.5 1001.5 499.5 997.5 490.5 881.5 490.5 1001.5" fill="none" stroke="#000" stroke-linejoin="round"/><polygon points="120.5 996.5 190.5 819.5 68.5 954.5 120.5 996.5" fill="none" stroke="#0e0e0e" stroke-linejoin="round"/><polygon points="684.5 995.5 738.5 937.5 620.5 879.5 684.5 995.5" fill="none" stroke="#000" stroke-linejoin="round"/><polygon points="363.5 903.5 349.5 858.5 256.5 822.5 363.5 903.5" fill="none" stroke="#000" stroke-linejoin="round"/><polygon points="738.5 937.5 885.5 797.5 758.5 804.5 738.5 937.5" fill="none" stroke="#000" stroke-linejoin="round"/><polygon points="1153.5 978.5 1107.5 849.5 1060.5 894.5 1153.5 978.5" fill="none" stroke="#141414" stroke-linejoin="round"/><polygon points="1153.5 978.5 1153.5 815.5 1107.5 849.5 1153.5 978.5" fill="none" stroke="#161616" stroke-linejoin="round"/><polygon points="363.5 903.5 490.5 881.5 381.5 845.5 363.5 903.5" fill="none" stroke="#000" stroke-linejoin="round"/><polygon points="738.5 937.5 709.5 832.5 620.5 879.5 738.5 937.5" fill="none" stroke="#000" stroke-linejoin="round"/><polygon points="68.5 954.5 190.5 819.5 19.5 801.5 68.5 954.5" fill="none" stroke="#101010" stroke-linejoin="round"/><polygon points="738.5 937.5 758.5 804.5 709.5 832.5 738.5 937.5" fill="none" stroke="#000" stroke-linejoin="round"/><polygon points="490.5 881.5 620.5 879.5 594.5 742.5 490.5 881.5" fill="none" stroke="#000" stroke-linejoin="round"/><polygon points="363.5 903.5 381.5 845.5 349.5 858.5 363.5 903.5" fill="none" stroke="#000" stroke-linejoin="round"/><polygon points="970.5 905.5 1060.5 894.5 1010.5 832.5 970.5 905.5" fill="none" stroke="#0e0e0e" stroke-linejoin="round"/><polygon points="970.5 905.5 1010.5 832.5 885.5 797.5 970.5 905.5" fill="none" stroke="#0a0a0a" stroke-linejoin="round"/><polygon points="32.5 381.5 46.5 210.5 0.5 0.5 32.5 381.5" fill="none" stroke="#1a1a1a" stroke-linejoin="round"/><polygon points="1060.5 894.5 1107.5 849.5 1010.5 832.5 1060.5 894.5" fill="none" stroke="#111" stroke-linejoin="round"/><polygon points="620.5 879.5 709.5 832.5 634.5 760.5 620.5 879.5" fill="none" stroke="#000" stroke-linejoin="round"/><polygon points="620.5 879.5 634.5 760.5 594.5 742.5 620.5 879.5" fill="none" stroke="#000" stroke-linejoin="round"/><polygon points="490.5 881.5 375.5 719.5 381.5 845.5 490.5 881.5" fill="none" stroke="#000" stroke-linejoin="round"/><polygon points="490.5 881.5 594.5 742.5 375.5 719.5 490.5 881.5" fill="none" stroke="#000" stroke-linejoin="round"/><polygon points="594.5 742.5 522.5 654.5 375.5 719.5 594.5 742.5" fill="none" stroke="#000" stroke-linejoin="round"/><polygon points="190.5 819.5 143.5 695.5 19.5 801.5 190.5 819.5" fill="none" stroke="#0f0f0f" stroke-linejoin="round"/><polygon points="1107.5 849.5 1142.5 752.5 1010.5 832.5 1107.5 849.5" fill="none" stroke="#131313" stroke-linejoin="round"/><polygon points="349.5 858.5 381.5 845.5 375.5 719.5 349.5 858.5" fill="none" stroke="#000" stroke-linejoin="round"/><polygon points="349.5 858.5 375.5 719.5 256.5 822.5 349.5 858.5" fill="none" stroke="#000" stroke-linejoin="round"/><polygon points="709.5 832.5 681.5 750.5 634.5 760.5 709.5 832.5" fill="none" stroke="#000" stroke-linejoin="round"/><polygon points="1107.5 849.5 1153.5 815.5 1142.5 752.5 1107.5 849.5" fill="none" stroke="#161616" stroke-linejoin="round"/><polygon points="19.5 801.5 81.5 675.5 0.5 533.5 19.5 801.5" fill="none" stroke="#141414" stroke-linejoin="round"/><polygon points="19.5 801.5 143.5 695.5 81.5 675.5 19.5 801.5" fill="none" stroke="#111" stroke-linejoin="round"/><polygon points="256.5 822.5 375.5 719.5 241.5 705.5 256.5 822.5" fill="none" stroke="#020202" stroke-linejoin="round"/><polygon points="1010.5 832.5 1070.5 670.5 885.5 797.5 1010.5 832.5" fill="none" stroke="#0d0d0d" stroke-linejoin="round"/><polygon points="1010.5 832.5 1142.5 752.5 1070.5 670.5 1010.5 832.5" fill="none" stroke="#121212" stroke-linejoin="round"/><polygon points="709.5 832.5 758.5 804.5 681.5 750.5 709.5 832.5" fill="none" stroke="#000" stroke-linejoin="round"/><polygon points="885.5 797.5 1070.5 670.5 1031.5 614.5 885.5 797.5" fill="none" stroke="#0e0e0e" stroke-linejoin="round"/><polygon points="256.5 822.5 241.5 705.5 190.5 819.5 256.5 822.5" fill="none" stroke="#070707" stroke-linejoin="round"/><polygon points="81.5 675.5 45.5 568.5 0.5 533.5 81.5 675.5" fill="none" stroke="#141414" stroke-linejoin="round"/><polygon points="758.5 804.5 885.5 797.5 758.5 598.5 758.5 804.5" fill="none" stroke="#000" stroke-linejoin="round"/><polygon points="190.5 819.5 241.5 705.5 143.5 695.5 190.5 819.5" fill="none" stroke="#0a0a0a" stroke-linejoin="round"/><polygon points="758.5 804.5 758.5 598.5 681.5 750.5 758.5 804.5" fill="none" stroke="#000" stroke-linejoin="round"/><polygon points="885.5 797.5 1031.5 614.5 758.5 598.5 885.5 797.5" fill="none" stroke="#070707" stroke-linejoin="round"/><polygon points="634.5 760.5 681.5 750.5 594.5 742.5 634.5 760.5" fill="none" stroke="#000" stroke-linejoin="round"/><polygon points="681.5 750.5 665.5 595.5 594.5 742.5 681.5 750.5" fill="none" stroke="#000" stroke-linejoin="round"/><polygon points="681.5 750.5 758.5 598.5 665.5 595.5 681.5 750.5" fill="none" stroke="#000" stroke-linejoin="round"/><polygon points="1142.5 752.5 1153.5 579.5 1070.5 670.5 1142.5 752.5" fill="none" stroke="#151515" stroke-linejoin="round"/><polygon points="375.5 719.5 288.5 570.5 241.5 705.5 375.5 719.5" fill="none" stroke="#030303" stroke-linejoin="round"/><polygon points="594.5 742.5 665.5 595.5 522.5 654.5 594.5 742.5" fill="none" stroke="#000" stroke-linejoin="round"/><polygon points="375.5 719.5 522.5 654.5 455.5 513.5 375.5 719.5" fill="none" stroke="#000" stroke-linejoin="round"/><polygon points="375.5 719.5 455.5 513.5 288.5 570.5 375.5 719.5" fill="none" stroke="#000" stroke-linejoin="round"/><polygon points="758.5 598.5 694.5 579.5 665.5 595.5 758.5 598.5" fill="none" stroke="#000" stroke-linejoin="round"/><polygon points="241.5 705.5 141.5 586.5 143.5 695.5 241.5 705.5" fill="none" stroke="#0c0c0c" stroke-linejoin="round"/><polygon points="241.5 705.5 155.5 573.5 141.5 586.5 241.5 705.5" fill="none" stroke="#0c0c0c" stroke-linejoin="round"/><polygon points="241.5 705.5 288.5 570.5 155.5 573.5 241.5 705.5" fill="none" stroke="#080808" stroke-linejoin="round"/><polygon points="1031.5 614.5 829.5 420.5 758.5 598.5 1031.5 614.5" fill="none" stroke="#050505" stroke-linejoin="round"/><polygon points="143.5 695.5 141.5 586.5 81.5 675.5 143.5 695.5" fill="none" stroke="#0f0f0f" stroke-linejoin="round"/><polygon points="522.5 654.5 665.5 595.5 564.5 521.5 522.5 654.5" fill="none" stroke="#000" stroke-linejoin="round"/><polygon points="1070.5 670.5 1153.5 579.5 1031.5 614.5 1070.5 670.5" fill="none" stroke="#141414" stroke-linejoin="round"/><polygon points="81.5 675.5 141.5 586.5 45.5 568.5 81.5 675.5" fill="none" stroke="#111" stroke-linejoin="round"/><polygon points="522.5 654.5 516.5 519.5 455.5 513.5 522.5 654.5" fill="none" stroke="#000" stroke-linejoin="round"/><polygon points="522.5 654.5 564.5 521.5 516.5 519.5 522.5 654.5" fill="none" stroke="#000" stroke-linejoin="round"/><polygon points="288.5 570.5 455.5 513.5 412.5 477.5 288.5 570.5" fill="none" stroke="#000" stroke-linejoin="round"/><polygon points="141.5 586.5 88.5 529.5 45.5 568.5 141.5 586.5" fill="none" stroke="#111" stroke-linejoin="round"/><polygon points="1031.5 614.5 1153.5 579.5 1153.5 476.5 1031.5 614.5" fill="none" stroke="#151515" stroke-linejoin="round"/><polygon points="1031.5 614.5 1153.5 476.5 1075.5 400.5 1031.5 614.5" fill="none" stroke="#141414" stroke-linejoin="round"/><polygon points="1031.5 614.5 1075.5 400.5 829.5 420.5 1031.5 614.5" fill="none" stroke="#0d0d0d" stroke-linejoin="round"/><polygon points="703.5 492.5 829.5 420.5 705.5 481.5 703.5 492.5" fill="none" stroke="#000" stroke-linejoin="round"/><polygon points="288.5 570.5 412.5 477.5 309.5 465.5 288.5 570.5" fill="none" stroke="#000" stroke-linejoin="round"/><polygon points="141.5 586.5 109.5 525.5 88.5 529.5 141.5 586.5" fill="none" stroke="#101010" stroke-linejoin="round"/><polygon points="665.5 595.5 703.5 492.5 564.5 521.5 665.5 595.5" fill="none" stroke="#000" stroke-linejoin="round"/><polygon points="758.5 598.5 703.5 492.5 694.5 579.5 758.5 598.5" fill="none" stroke="#000" stroke-linejoin="round"/><polygon points="758.5 598.5 829.5 420.5 703.5 492.5 758.5 598.5" fill="none" stroke="#000" stroke-linejoin="round"/><polygon points="155.5 573.5 288.5 570.5 309.5 465.5 155.5 573.5" fill="none" stroke="#070707" stroke-linejoin="round"/><polygon points="665.5 595.5 694.5 579.5 703.5 492.5 665.5 595.5" fill="none" stroke="#000" stroke-linejoin="round"/><polygon points="141.5 586.5 155.5 573.5 109.5 525.5 141.5 586.5" fill="none" stroke="#0f0f0f" stroke-linejoin="round"/><polygon points="829.5 420.5 1075.5 400.5 1019.5 339.5 829.5 420.5" fill="none" stroke="#0d0d0d" stroke-linejoin="round"/><polygon points="155.5 573.5 309.5 465.5 109.5 525.5 155.5 573.5" fill="none" stroke="#0b0b0b" stroke-linejoin="round"/><polygon points="1146.5 409.5 1153.5 0.5 1117.5 64.5 1146.5 409.5" fill="none" stroke="#1c1c1c" stroke-linejoin="round"/><polygon points="109.5 525.5 309.5 465.5 131.5 389.5 109.5 525.5" fill="none" stroke="#0c0c0c" stroke-linejoin="round"/><polygon points="1146.5 409.5 1117.5 64.5 1087.5 188.5 1146.5 409.5" fill="none" stroke="#1a1a1a" stroke-linejoin="round"/><polygon points="45.5 568.5 88.5 529.5 0.5 533.5 45.5 568.5" fill="none" stroke="#141414" stroke-linejoin="round"/><polygon points="705.5 481.5 829.5 420.5 758.5 410.5 705.5 481.5" fill="none" stroke="#000" stroke-linejoin="round"/><polygon points="703.5 492.5 705.5 481.5 558.5 484.5 703.5 492.5" fill="none" stroke="#000" stroke-linejoin="round"/><polygon points="564.5 521.5 558.5 484.5 516.5 519.5 564.5 521.5" fill="none" stroke="#000" stroke-linejoin="round"/><polygon points="564.5 521.5 703.5 492.5 558.5 484.5 564.5 521.5" fill="none" stroke="#000" stroke-linejoin="round"/><polygon points="0.5 533.5 88.5 529.5 32.5 381.5 0.5 533.5" fill="none" stroke="#151515" stroke-linejoin="round"/><polygon points="88.5 529.5 109.5 525.5 131.5 389.5 88.5 529.5" fill="none" stroke="#111" stroke-linejoin="round"/><polygon points="88.5 529.5 131.5 389.5 32.5 381.5 88.5 529.5" fill="none" stroke="#131313" stroke-linejoin="round"/><polygon points="829.5 420.5 1019.5 339.5 872.5 324.5 829.5 420.5" fill="none" stroke="#080808" stroke-linejoin="round"/><polygon points="516.5 519.5 422.5 435.5 455.5 513.5 516.5 519.5" fill="none" stroke="#000" stroke-linejoin="round"/><polygon points="516.5 519.5 558.5 484.5 422.5 435.5 516.5 519.5" fill="none" stroke="#000" stroke-linejoin="round"/><polygon points="558.5 484.5 705.5 481.5 579.5 354.5 558.5 484.5" fill="none" stroke="#000" stroke-linejoin="round"/><polygon points="455.5 513.5 422.5 435.5 412.5 477.5 455.5 513.5" fill="none" stroke="#000" stroke-linejoin="round"/><polygon points="325.5 392.5 182.5 313.5 131.5 389.5 325.5 392.5" fill="none" stroke="#0a0a0a" stroke-linejoin="round"/><polygon points="309.5 465.5 422.5 435.5 325.5 392.5 309.5 465.5" fill="none" stroke="#000" stroke-linejoin="round"/><polygon points="309.5 465.5 325.5 392.5 131.5 389.5 309.5 465.5" fill="none" stroke="#060606" stroke-linejoin="round"/><polygon points="1153.5 476.5 1146.5 409.5 1075.5 400.5 1153.5 476.5" fill="none" stroke="#171717" stroke-linejoin="round"/><polygon points="412.5 477.5 422.5 435.5 309.5 465.5 412.5 477.5" fill="none" stroke="#000" stroke-linejoin="round"/><polygon points="558.5 484.5 579.5 354.5 422.5 435.5 558.5 484.5" fill="none" stroke="#000" stroke-linejoin="round"/><polygon points="705.5 481.5 758.5 410.5 579.5 354.5 705.5 481.5" fill="none" stroke="#000" stroke-linejoin="round"/><polygon points="422.5 435.5 579.5 354.5 564.5 332.5 422.5 435.5" fill="none" stroke="#000" stroke-linejoin="round"/><polygon points="564.5 332.5 523.5 238.5 484.5 217.5 564.5 332.5" fill="none" stroke="#000" stroke-linejoin="round"/><polygon points="325.5 392.5 325.5 324.5 182.5 313.5 325.5 392.5" fill="none" stroke="#030303" stroke-linejoin="round"/><polygon points="422.5 435.5 564.5 332.5 484.5 217.5 422.5 435.5" fill="none" stroke="#000" stroke-linejoin="round"/><polygon points="422.5 435.5 484.5 217.5 325.5 324.5 422.5 435.5" fill="none" stroke="#000" stroke-linejoin="round"/><polygon points="422.5 435.5 325.5 324.5 325.5 392.5 422.5 435.5" fill="none" stroke="#000" stroke-linejoin="round"/><polygon points="1075.5 400.5 1078.5 380.5 1019.5 339.5 1075.5 400.5" fill="none" stroke="#141414" stroke-linejoin="round"/><polygon points="1146.5 409.5 1078.5 380.5 1075.5 400.5 1146.5 409.5" fill="none" stroke="#161616" stroke-linejoin="round"/><polygon points="758.5 410.5 678.5 176.5 579.5 354.5 758.5 410.5" fill="none" stroke="#000" stroke-linejoin="round"/><polygon points="829.5 420.5 872.5 324.5 758.5 410.5 829.5 420.5" fill="none" stroke="#000" stroke-linejoin="round"/><polygon points="758.5 410.5 872.5 324.5 678.5 176.5 758.5 410.5" fill="none" stroke="#000" stroke-linejoin="round"/><polygon points="1146.5 409.5 1087.5 188.5 1078.5 380.5 1146.5 409.5" fill="none" stroke="#171717" stroke-linejoin="round"/><polygon points="579.5 354.5 678.5 176.5 570.5 235.5 579.5 354.5" fill="none" stroke="#000" stroke-linejoin="round"/><polygon points="32.5 381.5 182.5 313.5 169.5 257.5 32.5 381.5" fill="none" stroke="#111" stroke-linejoin="round"/><polygon points="32.5 381.5 169.5 257.5 46.5 210.5 32.5 381.5" fill="none" stroke="#151515" stroke-linejoin="round"/><polygon points="131.5 389.5 182.5 313.5 32.5 381.5 131.5 389.5" fill="none" stroke="#111" stroke-linejoin="round"/><polygon points="579.5 354.5 570.5 235.5 564.5 332.5 579.5 354.5" fill="none" stroke="#000" stroke-linejoin="round"/><polygon points="1078.5 380.5 1087.5 188.5 1019.5 339.5 1078.5 380.5" fill="none" stroke="#151515" stroke-linejoin="round"/><polygon points="325.5 324.5 484.5 217.5 376.5 191.5 325.5 324.5" fill="none" stroke="#000" stroke-linejoin="round"/><polygon points="325.5 324.5 297.5 240.5 182.5 313.5 325.5 324.5" fill="none" stroke="#050505" stroke-linejoin="round"/><polygon points="872.5 324.5 809.5 141.5 678.5 176.5 872.5 324.5" fill="none" stroke="#000" stroke-linejoin="round"/><polygon points="1019.5 339.5 940.5 157.5 872.5 324.5 1019.5 339.5" fill="none" stroke="#0c0c0c" stroke-linejoin="round"/><polygon points="182.5 313.5 297.5 240.5 169.5 257.5 182.5 313.5" fill="none" stroke="#0b0b0b" stroke-linejoin="round"/><polygon points="1019.5 339.5 1087.5 188.5 940.5 157.5 1019.5 339.5" fill="none" stroke="#131313" stroke-linejoin="round"/><polygon points="678.5 176.5 809.5 141.5 705.5 148.5 678.5 176.5" fill="none" stroke="#000" stroke-linejoin="round"/><polygon points="46.5 210.5 56.5 168.5 0.5 0.5 46.5 210.5" fill="none" stroke="#1b1b1b" stroke-linejoin="round"/><polygon points="325.5 324.5 376.5 191.5 297.5 240.5 325.5 324.5" fill="none" stroke="#000" stroke-linejoin="round"/><polygon points="564.5 332.5 570.5 235.5 523.5 238.5 564.5 332.5" fill="none" stroke="#000" stroke-linejoin="round"/><polygon points="169.5 257.5 129.5 193.5 46.5 210.5 169.5 257.5" fill="none" stroke="#141414" stroke-linejoin="round"/><polygon points="872.5 324.5 940.5 157.5 871.5 132.5 872.5 324.5" fill="none" stroke="#0a0a0a" stroke-linejoin="round"/><polygon points="872.5 324.5 871.5 132.5 809.5 141.5 872.5 324.5" fill="none" stroke="#060606" stroke-linejoin="round"/><polygon points="1087.5 188.5 1073.5 153.5 940.5 157.5 1087.5 188.5" fill="none" stroke="#161616" stroke-linejoin="round"/><polygon points="298.5 229.5 376.5 191.5 358.5 176.5 298.5 229.5" fill="none" stroke="#000" stroke-linejoin="round"/><polygon points="297.5 240.5 298.5 229.5 263.5 170.5 297.5 240.5" fill="none" stroke="#060606" stroke-linejoin="round"/><polygon points="297.5 240.5 376.5 191.5 298.5 229.5 297.5 240.5" fill="none" stroke="#010101" stroke-linejoin="round"/><polygon points="169.5 257.5 297.5 240.5 263.5 170.5 169.5 257.5" fill="none" stroke="#0a0a0a" stroke-linejoin="round"/><polygon points="169.5 257.5 263.5 170.5 129.5 193.5 169.5 257.5" fill="none" stroke="#0f0f0f" stroke-linejoin="round"/><polygon points="46.5 210.5 129.5 193.5 56.5 168.5 46.5 210.5" fill="none" stroke="#171717" stroke-linejoin="round"/><polygon points="523.5 238.5 570.5 235.5 500.5 211.5 523.5 238.5" fill="none" stroke="#000" stroke-linejoin="round"/><polygon points="523.5 238.5 500.5 211.5 484.5 217.5 523.5 238.5" fill="none" stroke="#000" stroke-linejoin="round"/><polygon points="570.5 235.5 470.5 95.5 500.5 211.5 570.5 235.5" fill="none" stroke="#000" stroke-linejoin="round"/><polygon points="570.5 235.5 678.5 176.5 470.5 95.5 570.5 235.5" fill="none" stroke="#000" stroke-linejoin="round"/><polygon points="484.5 217.5 470.5 95.5 376.5 191.5 484.5 217.5" fill="none" stroke="#000" stroke-linejoin="round"/><polygon points="298.5 229.5 358.5 176.5 263.5 170.5 298.5 229.5" fill="none" stroke="#050505" stroke-linejoin="round"/><polygon points="470.5 95.5 579.5 0.5 576.5 0.5 470.5 95.5" fill="none" stroke="#040404" stroke-linejoin="round"/><polygon points="678.5 176.5 579.5 0.5 470.5 95.5 678.5 176.5" fill="none" stroke="#000" stroke-linejoin="round"/><polygon points="1087.5 188.5 1117.5 64.5 1073.5 153.5 1087.5 188.5" fill="none" stroke="#1a1a1a" stroke-linejoin="round"/><polygon points="129.5 193.5 263.5 170.5 201.5 78.5 129.5 193.5" fill="none" stroke="#111" stroke-linejoin="round"/><polygon points="484.5 217.5 500.5 211.5 470.5 95.5 484.5 217.5" fill="none" stroke="#000" stroke-linejoin="round"/><polygon points="470.5 95.5 576.5 0.5 561.5 0.5 470.5 95.5" fill="none" stroke="#040404" stroke-linejoin="round"/><polygon points="678.5 176.5 705.5 148.5 579.5 0.5 678.5 176.5" fill="none" stroke="#000" stroke-linejoin="round"/><polygon points="376.5 191.5 456.5 79.5 358.5 176.5 376.5 191.5" fill="none" stroke="#000" stroke-linejoin="round"/><polygon points="376.5 191.5 470.5 95.5 456.5 79.5 376.5 191.5" fill="none" stroke="#000" stroke-linejoin="round"/><polygon points="129.5 193.5 117.5 25.5 56.5 168.5 129.5 193.5" fill="none" stroke="#171717" stroke-linejoin="round"/><polygon points="129.5 193.5 201.5 78.5 117.5 25.5 129.5 193.5" fill="none" stroke="#161616" stroke-linejoin="round"/><polygon points="940.5 157.5 1073.5 153.5 1080.5 0.5 940.5 157.5" fill="none" stroke="#181818" stroke-linejoin="round"/><polygon points="358.5 176.5 292.5 0.5 263.5 170.5 358.5 176.5" fill="none" stroke="#090909" stroke-linejoin="round"/><polygon points="358.5 176.5 361.5 8.5 292.5 0.5 358.5 176.5" fill="none" stroke="#0b0b0b" stroke-linejoin="round"/><polygon points="358.5 176.5 456.5 79.5 361.5 8.5 358.5 176.5" fill="none" stroke="#050505" stroke-linejoin="round"/><polygon points="705.5 148.5 809.5 141.5 759.5 55.5 705.5 148.5" fill="none" stroke="#020202" stroke-linejoin="round"/><polygon points="263.5 170.5 292.5 0.5 201.5 78.5 263.5 170.5" fill="none" stroke="#101010" stroke-linejoin="round"/><polygon points="705.5 148.5 719.5 10.5 579.5 0.5 705.5 148.5" fill="none" stroke="#030303" stroke-linejoin="round"/><polygon points="56.5 168.5 117.5 25.5 0.5 0.5 56.5 168.5" fill="none" stroke="#1c1c1c" stroke-linejoin="round"/><polygon points="1073.5 153.5 1117.5 64.5 1080.5 0.5 1073.5 153.5" fill="none" stroke="#1c1c1c" stroke-linejoin="round"/><polygon points="940.5 157.5 1080.5 0.5 871.5 132.5 940.5 157.5" fill="none" stroke="#141414" stroke-linejoin="round"/><polygon points="871.5 132.5 1080.5 0.5 798.5 0.5 871.5 132.5" fill="none" stroke="#141414" stroke-linejoin="round"/><polygon points="705.5 148.5 759.5 55.5 719.5 10.5 705.5 148.5" fill="none" stroke="#050505" stroke-linejoin="round"/><polygon points="871.5 132.5 798.5 0.5 759.5 55.5 871.5 132.5" fill="none" stroke="#0b0b0b" stroke-linejoin="round"/><polygon points="809.5 141.5 871.5 132.5 759.5 55.5 809.5 141.5" fill="none" stroke="#080808" stroke-linejoin="round"/><polygon points="470.5 95.5 561.5 0.5 502.5 0.5 470.5 95.5" fill="none" stroke="#040404" stroke-linejoin="round"/><polygon points="470.5 95.5 502.5 0.5 456.5 79.5 470.5 95.5" fill="none" stroke="#020202" stroke-linejoin="round"/><polygon points="759.5 55.5 798.5 0.5 767.5 17.5 759.5 55.5" fill="none" stroke="#0c0c0c" stroke-linejoin="round"/><polygon points="456.5 79.5 502.5 0.5 361.5 8.5 456.5 79.5" fill="none" stroke="#080808" stroke-linejoin="round"/><polygon points="201.5 78.5 292.5 0.5 117.5 25.5 201.5 78.5" fill="none" stroke="#151515" stroke-linejoin="round"/><polygon points="1117.5 64.5 1153.5 0.5 1080.5 0.5 1117.5 64.5" fill="none" stroke="#1e1e1e" stroke-linejoin="round"/><polygon points="759.5 55.5 767.5 17.5 719.5 10.5 759.5 55.5" fill="none" stroke="#0a0a0a" stroke-linejoin="round"/><polygon points="361.5 8.5 502.5 0.5 358.5 0.5 361.5 8.5" fill="none" stroke="#0c0c0c" stroke-linejoin="round"/><polygon points="361.5 8.5 358.5 0.5 292.5 0.5 361.5 8.5" fill="none" stroke="#101010" stroke-linejoin="round"/><polygon points="719.5 10.5 722.5 4.5 579.5 0.5 719.5 10.5" fill="none" stroke="#090909" stroke-linejoin="round"/><polygon points="767.5 17.5 722.5 4.5 719.5 10.5 767.5 17.5" fill="none" stroke="#0b0b0b" stroke-linejoin="round"/><polygon points="117.5 25.5 292.5 0.5 0.5 0.5 117.5 25.5" fill="none" stroke="#1a1a1a" stroke-linejoin="round"/><polygon points="767.5 17.5 798.5 0.5 722.5 4.5 767.5 17.5" fill="none" stroke="#0d0d0d" stroke-linejoin="round"/><polygon points="722.5 4.5 798.5 0.5 579.5 0.5 722.5 4.5" fill="none" stroke="#0a0a0a" stroke-linejoin="round"/></svg>