<?xml version="1.0" encoding="utf-8"?>
<!-- Generator: Adobe Illustrator 24.0.1, SVG Export Plug-In . SVG Version: 6.00 Build 0)  -->
<svg version="1.1" id="Layer_1" xmlns="http://www.w3.org/2000/svg" xmlns:xlink="http://www.w3.org/1999/xlink" x="0px" y="0px"
	 viewBox="0 0 3200 3200" style="enable-background:new 0 0 3200 3200;" xml:space="preserve">
<style type="text/css">
	.st0{fill:#280749;}
	.st1{fill:#7C39BF;}
	.st2{fill:#FFFFFF;}
</style>
<path class="st0" d="M624.7,1826.2l1931.8-895L2851.3,427L624.7,1826.2z"/>
<path class="st1" d="M685.2,1840.1l1383.6-358l386.6-442.3L685.2,1840.1z"/>
<path class="st1" d="M1982.8,549.7L552.3,1830.8l1186-746.9L1982.8,549.7z"/>
<path class="st2" d="M1181.1,1206.1l-314,77l-319.3,507L1181.1,1206.1z"/>
<path class="st0" d="M656.4,1672.3L883,1446l-9.3-117.7L656.4,1672.3z"/>
<path class="st1" d="M378.1,2541c0,14.4,3.6,27.7,10.8,39.9c7.4,12.2,17.2,21.9,29.5,29.1c12.4,7.2,25.9,10.8,40.3,10.8
	c14.8,0,28.3-2.9,40.3-8.8c12-5.9,21.4-14.1,28.2-24.6c7-10.5,10.6-22.3,10.8-35.3h11.8c0,15-4,28.8-12.1,41.2
	c-7.9,12.2-18.8,21.9-32.7,29.1c-13.7,7-29.1,10.5-46.2,10.5c-16.6,0-32-4.1-46.2-12.4c-14.2-8.3-25.4-19.4-33.7-33.4
	c-8.3-14.2-12.4-29.6-12.4-46.2v-53.7c0-16.6,4-31.9,12.1-45.8c8.3-14.2,19.4-25.4,33.4-33.7c14.2-8.3,29.6-12.4,46.2-12.4
	c16.8,0,32.1,3.6,45.8,10.8c14,7,25,16.7,33.1,29.1c8.1,12.2,12.1,25.9,12.1,40.9h-11.8c-0.2-13.1-3.8-24.9-10.8-35.3
	c-7-10.5-16.5-18.7-28.5-24.6c-11.8-5.9-25.1-8.8-39.9-8.8c-14.4,0-27.7,3.6-39.9,10.8c-12.2,7.2-21.9,16.9-29.1,29.1
	c-7.2,12.2-10.8,25.5-10.8,39.9V2541z M639.3,2400.2h12.1V2541c0,14.4,3.6,27.7,10.8,39.9c7.2,12.2,16.9,21.9,29.1,29.1
	c12.2,7.2,25.5,10.8,39.9,10.8c14.4,0,27.7-3.6,39.9-10.8c12.2-7.2,21.9-16.9,29.1-29.1c7.2-12.2,10.8-25.5,10.8-39.9v-140.8h12.1
	V2541c0,16.6-4.1,32-12.4,46.2c-8.3,14-19.5,25.1-33.7,33.4c-14,8.3-29.2,12.4-45.8,12.4c-16.6,0-32-4.1-46.2-12.4
	c-14-8.3-25.1-19.4-33.4-33.4c-8.3-14.2-12.4-29.6-12.4-46.2V2400.2z"/>
<path class="st1" d="M388.9,2580.9l-15.2,8.9l0.1,0.1l0.1,0.1L388.9,2580.9z M418.3,2610.1l-8.9,15.2l0.1,0l0.1,0L418.3,2610.1z
	 M498.8,2612l-7.8-15.8L498.8,2612z M527,2587.5l-14.7-9.8l-0.1,0.1l-0.1,0.1L527,2587.5z M537.8,2552.1v-17.6h-17.3l-0.3,17.3
	L537.8,2552.1z M549.6,2552.1h17.6v-17.6h-17.6V2552.1z M537.5,2593.4l-14.8-9.6l0,0l0,0L537.5,2593.4z M504.7,2622.5l8,15.7l0,0
	l0,0L504.7,2622.5z M378.7,2587.2l-15.2,8.9l0,0.1l0,0.1L378.7,2587.2z M378.4,2441.5l-15.2-8.9l0,0l0,0L378.4,2441.5z
	 M411.8,2407.8l-8.9-15.2l-0.1,0l-0.1,0L411.8,2407.8z M503.8,2406.1l-8.2,15.6l0.1,0.1l0.1,0.1L503.8,2406.1z M536.8,2435.3
	l-14.8,9.6l0,0.1l0,0.1L536.8,2435.3z M548.9,2476.2v17.6h17.6v-17.6H548.9z M537.1,2476.2l-17.6,0.3l0.3,17.3h17.3V2476.2z
	 M497.9,2416.3L490,2432l0.1,0l0.1,0L497.9,2416.3z M418,2418.3l8.9,15.2l0,0L418,2418.3z M388.9,2447.4l-15.2-8.9l0,0L388.9,2447.4
	z M360.4,2541c0,17.5,4.4,33.9,13.2,48.9L404,2572c-5.6-9.5-8.4-19.7-8.4-31H360.4z M373.8,2590.1c8.9,14.7,20.8,26.5,35.6,35.2
	l17.9-30.3c-9.7-5.7-17.4-13.3-23.3-23.1L373.8,2590.1z M409.5,2625.3c15.1,8.8,31.6,13.2,49.1,13.2v-35.2
	c-11.3,0-21.7-2.8-31.4-8.4L409.5,2625.3z M458.6,2638.5c17.2,0,33.4-3.4,48-10.6l-15.5-31.6c-9.3,4.6-20.1,7-32.5,7V2638.5z
	 M506.6,2627.8c14.7-7.2,26.6-17.4,35.2-30.8l-29.6-19.1c-4.9,7.6-11.8,13.7-21.1,18.3L506.6,2627.8z M541.7,2597.3
	c8.9-13.4,13.5-28.5,13.8-44.8l-35.2-0.6c-0.2,9.9-2.8,18.3-7.8,25.9L541.7,2597.3z M537.8,2569.7h11.8v-35.2h-11.8V2569.7z
	 M532,2552.1c0,11.7-3.1,22.1-9.3,31.6l29.5,19.2c10-15.3,15-32.4,15-50.8H532z M522.7,2583.9c-6,9.4-14.5,17.1-26,23l16.1,31.3
	c16.5-8.5,29.8-20.2,39.5-35.3L522.7,2583.9z M496.8,2606.8c-11,5.6-23.6,8.6-38.2,8.6v35.2c19.5,0,37.7-4,54.1-12.4L496.8,2606.8z
	 M458.6,2615.4c-13.5,0-25.8-3.3-37.3-10l-17.8,30.4c16.9,9.9,35.4,14.9,55,14.9V2615.4z M421.3,2605.3
	c-11.6-6.8-20.7-15.8-27.5-27.2l-30.3,18c9.8,16.6,23.2,29.8,40,39.6L421.3,2605.3z M393.9,2578.3c-6.7-11.5-10-23.8-10-37.3h-35.2
	c0,19.7,5,38.1,14.8,55L393.9,2578.3z M383.9,2541v-53.7h-35.2v53.7H383.9z M383.9,2487.3c0-13.6,3.3-25.8,9.7-37l-30.5-17.6
	c-9.7,16.7-14.5,35-14.5,54.6H383.9z M393.6,2450.4c6.8-11.6,15.8-20.7,27.2-27.5l-18-30.3c-16.6,9.8-29.8,23.2-39.6,40
	L393.6,2450.4z M420.7,2423c11.5-6.7,23.8-10,37.3-10v-35.2c-19.7,0-38.1,5-55,14.9L420.7,2423z M457.9,2412.9
	c14.2,0,26.6,3,37.7,8.8l16.3-31.2c-16.5-8.6-34.6-12.8-54-12.8V2412.9z M495.9,2421.9c11.3,5.6,19.9,13.3,26.2,23l29.5-19.2
	c-9.9-15.2-23.3-27-40-35.3L495.9,2421.9z M522.1,2445c6.1,9.2,9.2,19.5,9.2,31.2h35.2c0-18.4-5-35.4-15-50.6L522.1,2445z
	 M548.9,2458.6h-11.8v35.2h11.8V2458.6z M554.8,2475.9c-0.3-16.3-4.8-31.4-13.8-44.8l-29.3,19.5c5,7.6,7.7,16,7.8,25.9L554.8,2475.9
	z M541,2431.1c-8.8-13.2-20.8-23.4-35.4-30.6l-15.5,31.6c9.4,4.6,16.4,10.8,21.6,18.5L541,2431.1z M505.7,2400.5
	c-14.5-7.3-30.6-10.7-47.8-10.7v35.2c12.5,0,23,2.4,32.1,7L505.7,2400.5z M457.9,2389.8c-17.5,0-33.9,4.4-48.9,13.2l17.9,30.4
	c9.5-5.6,19.7-8.4,31-8.4V2389.8z M409.1,2403.1c-14.8,8.7-26.6,20.6-35.4,35.4l30.3,17.9c5.7-9.6,13.3-17.2,22.9-22.9L409.1,2403.1
	z M373.7,2438.4c-8.8,15-13.2,31.4-13.2,48.9h35.2c0-11.3,2.8-21.5,8.4-31L373.7,2438.4z M360.4,2487.3v53.7h35.2v-53.7H360.4z
	 M639.3,2400.2v-17.6h-17.6v17.6H639.3z M651.5,2400.2h17.6v-17.6h-17.6V2400.2z M662.3,2580.9l15.2-8.9l0,0L662.3,2580.9z
	 M691.4,2610.1l-8.9,15.2L691.4,2610.1z M771.3,2610.1l-8.9-15.2L771.3,2610.1z M800.4,2580.9l-15.2-8.9L800.4,2580.9z
	 M811.2,2400.2v-17.6h-17.6v17.6H811.2z M823.3,2400.2h17.6v-17.6h-17.6V2400.2z M810.9,2587.2l15.1,9l0-0.1l0-0.1L810.9,2587.2z
	 M777.2,2620.5l-8.9-15.2l-0.1,0l-0.1,0L777.2,2620.5z M685.2,2620.5l-9,15.1l0.1,0l0.1,0L685.2,2620.5z M651.8,2587.2l-15.2,8.9
	l0,0.1l0,0.1L651.8,2587.2z M639.3,2417.9h12.1v-35.2h-12.1V2417.9z M633.8,2400.2V2541h35.2v-140.8H633.8z M633.8,2541
	c0,17.5,4.4,33.9,13.2,48.9l30.3-17.9c-5.6-9.5-8.4-19.7-8.4-31H633.8z M647.1,2589.9c8.7,14.8,20.6,26.6,35.4,35.4l17.9-30.3
	c-9.6-5.7-17.2-13.2-22.9-22.9L647.1,2589.9z M682.5,2625.2c15,8.8,31.4,13.2,48.9,13.2v-35.2c-11.3,0-21.5-2.8-31-8.4L682.5,2625.2
	z M731.3,2638.5c17.5,0,33.9-4.4,48.9-13.2l-17.9-30.3c-9.5,5.6-19.7,8.4-31,8.4V2638.5z M780.2,2625.2
	c14.8-8.7,26.6-20.6,35.4-35.4l-30.3-17.9c-5.7,9.7-13.3,17.2-22.9,22.9L780.2,2625.2z M815.6,2589.9c8.8-15,13.2-31.4,13.2-48.9
	h-35.2c0,11.3-2.8,21.5-8.4,31L815.6,2589.9z M828.8,2541v-140.8h-35.2V2541H828.8z M811.2,2417.9h12.1v-35.2h-12.1V2417.9z
	 M805.7,2400.2V2541h35.2v-140.8H805.7z M805.7,2541c0,13.5-3.3,25.8-10,37.3l30.4,17.8c9.9-16.9,14.8-35.4,14.8-55H805.7z
	 M795.7,2578.2c-6.7,11.4-15.8,20.4-27.5,27.2l17.8,30.4c16.7-9.8,30.1-23,40-39.6L795.7,2578.2z M768.2,2605.4
	c-11.2,6.6-23.3,10-36.8,10v35.2c19.7,0,38.1-5,54.8-14.9L768.2,2605.4z M731.3,2615.4c-13.5,0-25.8-3.3-37.3-10l-17.8,30.4
	c16.9,9.9,35.4,14.9,55,14.9V2615.4z M694.2,2605.4c-11.4-6.8-20.4-15.8-27.2-27.2l-30.3,18c9.8,16.5,23,29.8,39.5,39.5
	L694.2,2605.4z M667,2578.3c-6.7-11.5-10-23.8-10-37.3h-35.2c0,19.7,5,38.1,14.8,55L667,2578.3z M657,2541v-140.8h-35.2V2541H657z"
	/>
<path class="st0" d="M902.7,2652.2v-435.6h65.5v185.1h218.1v-185.1h66.1c0,5.2,0,15,0,29.4c0,14,0,30.9,0,50.5c0,19.6,0,41.5,0,65.5
	c0,23.6-0.2,47.9-0.6,72.7c0,24.4,0,48.7,0,72.7c0,23.6,0,45.3,0,64.9c0,19.6,0,36.6,0,51.1c0,14,0,23.6,0,28.8h-65.5v-188.1H968.2
	v188.1H902.7z M1312.6,2529.1c0-18.4,3.4-35.6,10.2-51.7c7.2-16.4,16.8-30.7,28.8-42.7c12-12.4,25.8-22.2,41.5-29.4
	c16-7.2,33.1-10.8,51.1-10.8c12,0,23,1.6,33.1,4.8c10,2.8,18.6,6.4,25.8,10.8c7.2,4.4,13,9,17.4,13.8c4.4,4.8,7.4,9,9,12.6l2.4-35.4
	h49.3v251.2h-51.7v-31.8c-2,3.2-5.2,7-9.6,11.4c-4.4,4.4-10.2,8.6-17.4,12.6c-6.8,3.6-15,6.8-24.6,9.6c-9.6,2.8-20.6,4.2-33,4.2
	c-19.2,0-37.1-3.4-53.5-10.2c-16-7.2-29.8-16.6-41.5-28.2c-11.6-12-20.8-25.8-27.6-41.5C1315.8,2562.7,1312.6,2546.3,1312.6,2529.1z
	 M1364.3,2526.1c0,11.6,2,22.4,6,32.4c4.4,10,10.2,18.6,17.4,25.8c7.2,7.2,15.8,13,25.8,17.4c10,4,21,6,33,6s23-2,33.1-6
	c10.4-4.4,19.2-10.2,26.4-17.4c7.6-7.6,13.4-16.2,17.4-25.8c4-10,6-20.8,6-32.4s-2-22.2-6-31.9c-4-10-9.8-18.6-17.4-25.8
	c-7.2-7.2-16-12.8-26.4-16.8c-10-4.4-21-6.6-33.1-6.6s-23,2.2-33,6.6c-10,4-18.6,9.6-25.8,16.8c-7.2,7.2-13,15.8-17.4,25.8
	C1366.3,2503.8,1364.3,2514.4,1364.3,2526.1z M1821.6,2590.3c5.6,6.8,10.8,13.4,15.6,19.8c5.2,6,10.4,12.4,15.6,19.2
	c-11.2,8.8-23.8,15.8-37.9,21c-14,5.2-29.2,7.8-45.7,7.8c-18.4,0-35.8-3.4-52.3-10.2c-16-7.2-30.1-16.8-42.1-28.8
	c-12-12-21.6-26-28.8-42.1c-6.8-16-10.2-33.1-10.2-51.1s3.4-35.1,10.2-51.1c7.2-16,16.8-29.8,28.8-41.5c12-12,26-21.4,42.1-28.2
	c16.4-7.2,33.8-10.8,52.3-10.8c16.8,0,32.2,2.6,46.3,7.8c14.4,5.2,27.4,12.2,39.1,21l-33.1,39.1c-6.8-5.6-14.6-9.8-23.4-12.6
	c-8.8-3.2-18.4-4.8-28.9-4.8c-12,0-23,2.2-33,6.6c-10,4-18.8,9.6-26.4,16.8c-7.2,7.2-12.8,15.8-16.8,25.8c-4,9.6-6,20.2-6,31.9
	s2,22.4,6,32.4c4,9.6,9.6,18.2,16.8,25.8c7.6,7.2,16.4,13,26.4,17.4c10,4,21,6,33,6c10.4,0,20-1.4,28.9-4.2
	C1807,2600.4,1814.8,2596,1821.6,2590.3z M2081.8,2394.5l30.6,30.7c-15.2,14-29.8,27.6-43.9,40.9c-13.6,13.2-28,27-43.3,41.5
	c18,24,35.6,48.3,52.9,72.7c17.2,24,34.7,48.1,52.3,72.1h-58.9c-13.6-18.8-27.5-37.3-41.5-55.3c-13.6-18.4-27.2-37-40.9-55.9
	l-34.8,31.9v79.3h-51.1v-466.9h51.1v327.5c22.4-20.4,43.9-40.1,64.3-58.9C2039.2,2434.7,2060.2,2414.9,2081.8,2394.5z
	 M2162.6,2304.9c0-9.6,3.4-17.6,10.2-24c7.2-6.4,14.8-9.6,22.8-9.6c8,0,15.4,3.2,22.2,9.6c6.8,6.4,10.2,14.4,10.2,24
	c0,9.6-3.4,17.6-10.2,24c-6.8,6-14.2,9-22.2,9c-8,0-15.6-3-22.8-9C2166,2322.5,2162.6,2314.5,2162.6,2304.9z M2220.3,2652.2h-51.1
	v-251.2h51.1V2652.2z M2292.4,2401.1h45.1c0.8,12.4,1.4,23.8,1.8,34.2c0.8,10,1.6,20,2.4,30.1c9.2-21.6,22.2-38.9,39-51.7
	c17.2-12.8,38.3-19.2,63.1-19.2c25.2,0,45.5,7,60.7,21c15.2,14,23.2,32.1,24,54.1v182.7h-51.7V2493c-0.8-12.8-5.2-23.6-13.2-32.4
	c-8-9.2-20.6-14.2-37.9-15c-12,0-23,2.2-33.1,6.6c-10,4-18.6,9.6-25.8,16.8c-7.2,7.2-13,15.8-17.4,25.8c-4,10-6,21-6,33.1v124.4
	h-51.1V2401.1z M2581.3,2527.3c0-18.8,3.4-36.2,10.2-52.3c6.8-16.4,16-30.4,27.6-42.1c11.6-12,25.2-21.4,40.9-28.2
	c15.6-6.8,32.2-10.2,49.9-10.2c13.6,0,25.6,1.8,36.1,5.4c10.8,3.6,19.8,7.8,27,12.6c7.2,4.8,12.8,9.6,16.8,14.4
	c4.4,4.4,7.2,7.6,8.4,9.6c0-5.6,0.4-11.4,1.2-17.4c0.8-6.4,1.2-12.4,1.2-18h49.3v239.8c0,41.7-12.2,74.1-36.6,97.4
	c-24.4,23.2-57.5,34.8-99.1,34.8c-14.4,0-27.4-1.6-39.1-4.8c-11.2-2.8-21.6-6.6-31.2-11.4c-9.2-4.8-17.8-10.4-25.8-16.8
	c-7.6-6.4-15.2-13-22.8-19.8l33.1-34.9c12.4,11.6,25,20.8,37.9,27.6c13.2,6.8,28.8,10.2,46.9,10.2c26.8,0,47.7-6.4,62.5-19.2
	c14.8-12.8,22.4-30.6,22.8-53.5V2633c0-3.2,0.4-6.6,1.2-10.2c0.8-4,1.2-7,1.2-9c-3.6,4.8-8.2,10-13.8,15.6
	c-5.2,5.2-11.4,10-18.6,14.4c-7.2,4-15.6,7.4-25.2,10.2s-20.4,4.2-32.5,4.2c-18.8,0-36-3.4-51.7-10.2c-15.6-6.8-29.2-16-40.9-27.6
	c-11.6-12-20.6-25.8-27-41.5C2584.5,2562.9,2581.3,2545.7,2581.3,2527.3z M2633,2526.1c0,11.6,2,22.4,6,32.4
	c4.4,10,10.2,18.6,17.4,25.8s15.8,13,25.8,17.4c10,4,21,6,33,6s23-2,33.1-6c10.4-4.4,19.2-10.2,26.4-17.4
	c7.6-7.6,13.4-16.2,17.4-25.8c4-10,6-20.8,6-32.4s-2-22.2-6-31.9c-4-10-9.8-18.6-17.4-25.8c-7.2-7.2-16-12.8-26.4-16.8
	c-10-4.4-21-6.6-33.1-6.6s-23,2.2-33,6.6c-10,4-18.6,9.6-25.8,16.8s-13,15.8-17.4,25.8C2635,2503.8,2633,2514.4,2633,2526.1z"/>
</svg>
